<svg id="Capa_1" data-name="Capa 1" xmlns="http://www.w3.org/2000/svg" viewBox="0 0 512 512"><defs><style>.cls-1{fill:#252525;}.cls-2{fill:#5398c6;}</style></defs><path class="cls-1" d="M251,170.59A73.5,73.5,0,0,1,276,175V94.52H228.1a6.59,6.59,0,0,0-6.59,6.59v33.7a112.21,112.21,0,0,0-16.38,6.57l-26.62-26.62a6.6,6.6,0,0,0-9.32,0l-39.36,39.36a6.6,6.6,0,0,0,0,9.32L155.4,189a112.12,112.12,0,0,0-6.94,15.09H117.1a6.58,6.58,0,0,0-6.59,6.58v55.67a6.59,6.59,0,0,0,6.59,6.58h27.75A114.5,114.5,0,0,0,152.56,294l-21.77,21.76a6.6,6.6,0,0,0,0,9.32l39.36,39.36a6.6,6.6,0,0,0,9.32,0l20.21-20.22a113.15,113.15,0,0,0,21.83,9.46v29a6.59,6.59,0,0,0,6.59,6.59H276V313.51A73.66,73.66,0,1,1,251,170.59Zm-78.22,33.5"/><path class="cls-2" d="M449.55,165.4A49.46,49.46,0,0,0,437.13,167a51.27,51.27,0,0,0-8.07,2.85,187.24,187.24,0,0,0-347.54,4.87,49.44,49.44,0,0,0-12.41-1.59c-36.13,0-47.14,37-47.14,86s11,91.43,47.14,91.43a50.61,50.61,0,0,0,24.15-6.24l24.87-15.9q-1.3-2.06-2.53-4.17A163,163,0,1,1,399.36,320L425,336.34a50.58,50.58,0,0,0,24.58,6.48c36.12,0,40.48-45,40.48-94S485.67,165.4,449.55,165.4Z"/><path class="cls-2" d="M398.53,409.72l.41,40.2c-1.2,11.07-10.38,6.37-10.38,6.37l-35.92-17.66-38.23-18.79a187.39,187.39,0,0,1-208.1-66l20.45-13.07a163,163,0,0,0,264.74-7.93l20.39,13a188.49,188.49,0,0,1-13.83,18.16Z"/><circle class="cls-1" cx="248.68" cy="241.6" r="17.51"/><circle class="cls-1" cx="300.63" cy="241.6" r="17.51"/><circle class="cls-1" cx="352.58" cy="241.6" r="17.51"/></svg>