<svg id="Capa_1" data-name="Capa 1" xmlns="http://www.w3.org/2000/svg" viewBox="0 0 1080 1080"><defs><style>.cls-1{fill:#252525;}.cls-2{fill:#145aa2;}</style></defs><path class="cls-1" d="M529.23,357A157.51,157.51,0,0,1,583,366.33V193.93H480.2a14.13,14.13,0,0,0-14.12,14.12v72.22A241,241,0,0,0,431,294.37l-57.05-57.05a14.11,14.11,0,0,0-20,0l-84.34,84.34a14.11,14.11,0,0,0,0,20l54.79,54.79a239.53,239.53,0,0,0-14.86,32.32H242.32a14.12,14.12,0,0,0-14.12,14.12V562.15a14.12,14.12,0,0,0,14.12,14.11H301.8a243.88,243.88,0,0,0,16.52,45.15l-46.65,46.64a14.11,14.11,0,0,0,0,20L356,772.37a14.11,14.11,0,0,0,20,0l43.31-43.32a243.5,243.5,0,0,0,46.78,20.26v62.14a14.13,14.13,0,0,0,14.12,14.12H583V663.25A157.86,157.86,0,1,1,529.23,357ZM361.61,428.74"/><path class="cls-2" d="M954.79,345.83a105.58,105.58,0,0,0-26.61,3.42,109.32,109.32,0,0,0-17.29,6.1c-60.47-144.87-203.5-246.71-370.31-246.71-170.79,0-316.66,106.74-374.5,257.15a106.09,106.09,0,0,0-26.61-3.41c-77.42,0-101,79.3-101,184.29s23.59,195.94,101,195.94a108.38,108.38,0,0,0,51.76-13.38l53.3-34.06c-1.85-2.95-3.67-5.93-5.43-8.95a350.1,350.1,0,0,1-26.74-296.14c48.84-134,177.36-229.61,328.22-229.61,192.9,0,349.28,156.37,349.28,349.27a347.65,347.65,0,0,1-42.63,167.35l54.89,35.1a108.51,108.51,0,0,0,52.67,13.87c77.42,0,86.75-96.36,86.75-201.36S1032.21,345.83,954.79,345.83Z"/><path class="cls-2" d="M845.45,869.44l.89,86.14c-2.58,23.72-22.24,13.65-22.24,13.65l-77-37.84-81.91-40.27a400.41,400.41,0,0,1-124.61,19.74c-131.5,0-248.24-63.3-321.38-161.09l43.82-28C326.83,805.2,427.41,859,540.58,859c120.68,0,227.06-61.2,289.82-154.26l43.68,27.9a401.3,401.3,0,0,1-29.64,38.93Z"/><circle class="cls-1" cx="524.32" cy="509.14" r="37.53"/><circle class="cls-1" cx="635.65" cy="509.14" r="37.53"/><circle class="cls-1" cx="746.98" cy="509.14" r="37.53"/></svg>