<svg id="Capa_1" data-name="Capa 1" xmlns="http://www.w3.org/2000/svg" viewBox="0 0 1080 1080"><defs><style>.cls-1{fill:#252525;}.cls-2{fill:#5398c6;}</style></defs><path class="cls-1" d="M516.33,301.59a137,137,0,0,1,46.73,8.16V159.8H473.69a12.29,12.29,0,0,0-12.29,12.28v62.81a211.71,211.71,0,0,0-30.53,12.26l-49.62-49.62a12.28,12.28,0,0,0-17.37,0L290.52,270.9a12.26,12.26,0,0,0,0,17.36l47.65,47.66A209.27,209.27,0,0,0,325.25,364H266.79A12.29,12.29,0,0,0,254.5,376.3V480.06a12.29,12.29,0,0,0,12.29,12.28h51.73a212,212,0,0,0,14.37,39.26l-40.58,40.57a12.29,12.29,0,0,0,0,17.37l73.37,73.36a12.26,12.26,0,0,0,17.36,0l37.68-37.67a212.27,212.27,0,0,0,40.68,17.62v54a12.3,12.3,0,0,0,12.29,12.29h89.37V568a137.3,137.3,0,1,1-46.73-266.41ZM370.54,364"/><path class="cls-2" d="M886.46,291.92a91.77,91.77,0,0,0-23.14,3,95.86,95.86,0,0,0-15,5.3c-52.6-126-177-214.57-322.09-214.57-148.55,0-275.41,92.84-325.73,223.66a92.16,92.16,0,0,0-23.14-3c-67.33,0-87.85,69-87.85,160.29S110,637,177.33,637a94.31,94.31,0,0,0,45-11.63l46.36-29.63Q266.3,591.92,264,588A304.51,304.51,0,0,1,240.73,330.4C283.21,213.88,395,130.69,526.2,130.69,694,130.69,830,266.7,830,434.48A302.44,302.44,0,0,1,792.91,580l47.74,30.52a94.35,94.35,0,0,0,45.81,12.07c67.34,0,75.46-83.81,75.46-175.14S953.8,291.92,886.46,291.92Z"/><path class="cls-2" d="M791.37,747.33l.77,74.92c-2.25,20.64-19.35,11.88-19.35,11.88l-67-32.92-71.25-35A348.27,348.27,0,0,1,526.2,783.35c-114.37,0-215.91-55.05-279.52-140.1l38.11-24.37A303.21,303.21,0,0,0,526.2,738.27c105,0,197.49-53.23,252.07-134.17l38,24.27a349.87,349.87,0,0,1-25.78,33.85Z"/><circle class="cls-1" cx="512.06" cy="433.96" r="32.64"/><circle class="cls-1" cx="608.89" cy="433.96" r="32.64"/><circle class="cls-1" cx="705.72" cy="433.96" r="32.64"/><path class="cls-1" d="M60.87,864.35A4.57,4.57,0,0,1,62,861.6a3.44,3.44,0,0,1,2.75-1.22h26.8a4.61,4.61,0,0,1,2.8,1.13,3.47,3.47,0,0,1,1.44,2.85v40a2.9,2.9,0,0,0,2.89,2.89h39.07a2.89,2.89,0,0,0,2.89-2.89v-40a3.9,3.9,0,0,1,1.13-2.8,3.84,3.84,0,0,1,2.92-1.18h26.37a5.52,5.52,0,0,1,3.15.9,3.23,3.23,0,0,1,1.36,2.89V990.42a3.7,3.7,0,0,1-1.17,3,4.57,4.57,0,0,1-3.07,1H144.69a4.21,4.21,0,0,1-2.92-1,3.75,3.75,0,0,1-1.13-3V942.05a2.89,2.89,0,0,0-2.89-2.89H98.68a2.89,2.89,0,0,0-2.89,2.89v48.37a3.64,3.64,0,0,1-1.21,2.93,5,5,0,0,1-3.3,1H64.75c-2.53,0-3.82-1.18-3.88-3.52Z"/><path class="cls-1" d="M191.33,864.53a4.29,4.29,0,0,1,1-3,3.77,3.77,0,0,1,2.92-1.13h89.53a4,4,0,0,1,3.07,1.17A4.46,4.46,0,0,1,289,864.7V887a4.7,4.7,0,0,1-1.08,2.93,3.76,3.76,0,0,1-3.16,1.39H229.15a2.89,2.89,0,0,0-2.89,2.89v16.6a2.89,2.89,0,0,0,2.89,2.89h42.23a4.74,4.74,0,0,1,2.84.81,3.13,3.13,0,0,1,1.13,2.71v19.49a3.7,3.7,0,0,1-1,2.44,3.56,3.56,0,0,1-2.88,1.17H229.15a2.89,2.89,0,0,0-2.89,2.89v17.33a2.89,2.89,0,0,0,2.89,2.89H286.9c2.7,0,4.06,1.38,4.06,4.13v22.68a2.24,2.24,0,0,1-.72,1.62c-.24,1.68-1.48,2.52-3.7,2.52H195.29a4.22,4.22,0,0,1-2.88-.95,3.7,3.7,0,0,1-1.08-2.93Z"/><path class="cls-1" d="M306.56,864.26a4,4,0,0,1,1.08-2.8,3.88,3.88,0,0,1,3-1.17h26.71a4.19,4.19,0,0,1,2.8,1.08,3.9,3.9,0,0,1,1.35,2.89v95.29a2.89,2.89,0,0,0,2.89,2.89h46.75a4,4,0,0,1,2.79,1.08,3.89,3.89,0,0,1,1.18,3v23.74a4.3,4.3,0,0,1-1,2.79,3.81,3.81,0,0,1-2.93,1.36h-77.7a6.86,6.86,0,0,1-6.86-6.86Z"/><path class="cls-1" d="M409.24,864.53a4.37,4.37,0,0,1,1-3,3.76,3.76,0,0,1,3-1.13h57.66a39.33,39.33,0,0,1,11.73,1.71,40.41,40.41,0,0,1,10.11,4.74,41.53,41.53,0,0,1,8.3,7.22,47,47,0,0,1,6.27,9.07,46,46,0,0,1,3.92,10.24,44,44,0,0,1,1.36,10.88,44.69,44.69,0,0,1-2.93,15.88,43.63,43.63,0,0,1-8.35,13.81,42.54,42.54,0,0,1-13,9.79,38.28,38.28,0,0,1-16.78,3.83H447.06a2.89,2.89,0,0,0-2.89,2.89v40.07c0,2.58-1.39,3.88-4.15,3.88h-26.8a4.23,4.23,0,0,1-2.89-.95,3.7,3.7,0,0,1-1.09-2.93Zm68,39.53a16.38,16.38,0,0,0-.95-5.42,14.88,14.88,0,0,0-2.76-4.82,14.49,14.49,0,0,0-4.37-3.48A12.36,12.36,0,0,0,463.3,889H447.06a2.89,2.89,0,0,0-2.89,2.89v24.36a2.89,2.89,0,0,0,2.89,2.89H463.3a12.94,12.94,0,0,0,5.86-1.31,13.6,13.6,0,0,0,4.38-3.38,15,15,0,0,0,2.71-4.79A16.83,16.83,0,0,0,477.2,904.06Z"/><path class="cls-1" d="M629.24,870.13a5.7,5.7,0,0,1,2.26,2.34,3.71,3.71,0,0,1-.28,3.43L616,897.56a3.56,3.56,0,0,1-2.12,1.76,4,4,0,0,1-2.75-.77,34.48,34.48,0,0,0-9.75-5.14,35,35,0,0,0-11.28-1.81,32.7,32.7,0,0,0-24.36,10.47,35.39,35.39,0,0,0-7,11.37,38.12,38.12,0,0,0-2.53,13.9,37.74,37.74,0,0,0,2.53,13.85,35,35,0,0,0,7,11.28,32.81,32.81,0,0,0,24.36,10.42,35.09,35.09,0,0,0,21.21-7A4.17,4.17,0,0,1,614,955a3.7,3.7,0,0,1,2.16,1.63l15.44,22.2a3.56,3.56,0,0,1,.27,3.34,5.88,5.88,0,0,1-2.26,2.25,72,72,0,0,1-18.27,8.8,67.82,67.82,0,0,1-20.62,3.11,68.47,68.47,0,0,1-48.78-20.17,70.09,70.09,0,0,1-10.78-13.89,67.26,67.26,0,0,1-6.95-16.43,70.33,70.33,0,0,1,0-36.73,69,69,0,0,1,6.95-16.51,70.11,70.11,0,0,1,10.78-14,67.08,67.08,0,0,1,13.94-10.78,70.68,70.68,0,0,1,16.47-7,69.77,69.77,0,0,1,38.81.54A70.17,70.17,0,0,1,629.24,870.13Z"/><path class="cls-1" d="M865.87,909.15a70.23,70.23,0,0,0-7-16.5,67.2,67.2,0,0,0-10.79-14,68.8,68.8,0,0,0-14-10.78,70.86,70.86,0,0,0-16.53-7,69.47,69.47,0,0,0-36.72,0,71.32,71.32,0,0,0-16.47,7,67.07,67.07,0,0,0-9.27,6.5,2.89,2.89,0,0,0-.41,4.1,74.88,74.88,0,0,1,8,11.19,78,78,0,0,1,7.54,17.9c0,.17.1.36.14.53a33.85,33.85,0,0,1,4.44-6,33.66,33.66,0,0,1,49,0,35.06,35.06,0,0,1,7.08,11.42,40,40,0,0,1,0,27.93,34.5,34.5,0,0,1-7.08,11.32,32.29,32.29,0,0,1-10.8,7.57,33.79,33.79,0,0,1-13.76,2.77,33.36,33.36,0,0,1-13.69-2.77,32.47,32.47,0,0,1-10.77-7.57,32.82,32.82,0,0,1-4.41-5.86c0,.21-.12.43-.17.64a77.07,77.07,0,0,1-7.54,17.83,75.32,75.32,0,0,1-7.93,11,2.9,2.9,0,0,0,.4,4.11,70.58,70.58,0,0,0,9.26,6.5,69.2,69.2,0,0,0,69.72,0,70.68,70.68,0,0,0,14-10.79,67.36,67.36,0,0,0,10.79-13.89,69.12,69.12,0,0,0,7-16.42,69.28,69.28,0,0,0,0-36.74Z"/><path class="cls-1" d="M880.25,864.53a4.41,4.41,0,0,1,1-3,3.79,3.79,0,0,1,3-1.13h58.3a43.89,43.89,0,0,1,17.41,3.47,45.45,45.45,0,0,1,14.17,9.43,44,44,0,0,1,9.52,14,42.08,42.08,0,0,1,3.47,17,40.08,40.08,0,0,1-1.67,11.68,43.54,43.54,0,0,1-11.73,19.13,45.82,45.82,0,0,1-6.77,5.38,2.85,2.85,0,0,0-.93,3.74l21.92,41.28c.42.85,1,1.84,1.62,3a6.2,6.2,0,0,1,1,3,2.68,2.68,0,0,1-.94,2.21,4,4,0,0,1-2.58.77h-31a4.46,4.46,0,0,1-2.75-.91,4.09,4.09,0,0,1-1.58-2.43l-21.11-39.71a2.9,2.9,0,0,0-2.55-1.53h-10a2.89,2.89,0,0,0-2.89,2.89v37.81c0,2.58-1.38,3.88-4.15,3.88h-26.8a4.25,4.25,0,0,1-2.89-.95,3.7,3.7,0,0,1-1.08-2.93Zm70.66,40.07a15.7,15.7,0,0,0-1-5.42,18,18,0,0,0-2.8-5,16.58,16.58,0,0,0-4.33-3.79,14.87,14.87,0,0,0-5.6-2c-1.68-.13-3.26-.23-4.74-.32s-3.08-.14-4.82-.14h-9.57a2.9,2.9,0,0,0-2.89,2.89v27.34a2.89,2.89,0,0,0,2.89,2.89h13.72c1.08,0,2,0,2.89-.09s1.77-.15,2.79-.27a14.31,14.31,0,0,0,5.69-1.85,14.84,14.84,0,0,0,4.24-3.7,16.34,16.34,0,0,0,2.61-5A17.81,17.81,0,0,0,950.91,904.6Z"/><path class="cls-1" d="M766.3,918.3a3.25,3.25,0,0,0,0-.44,65.39,65.39,0,0,0-1.83-8.71,71.49,71.49,0,0,0-6.94-16.5,66.8,66.8,0,0,0-8.89-12.06c-.62-.67-1.26-1.32-1.91-2a68.32,68.32,0,0,0-14-10.78,70.61,70.61,0,0,0-16.52-7,69.4,69.4,0,0,0-36.7,0,70.92,70.92,0,0,0-16.49,7,67.42,67.42,0,0,0-13.94,10.78,68.94,68.94,0,0,0-10.79,14,69.84,69.84,0,0,0-7,53.24,67.16,67.16,0,0,0,7,16.42A69.13,69.13,0,0,0,732.7,987a70.17,70.17,0,0,0,14-10.79c.65-.64,1.27-1.29,1.91-1.94a67.8,67.8,0,0,0,8.89-12,70.35,70.35,0,0,0,6.94-16.42,63,63,0,0,0,1.87-9V918.3Zm-35.4,18.62a32.65,32.65,0,0,1-1.41,4.5,34.64,34.64,0,0,1-7.07,11.32,32.57,32.57,0,0,1-10.82,7.57,35.39,35.39,0,0,1-27.45,0,32.68,32.68,0,0,1-10.77-7.57,34.64,34.64,0,0,1-7.07-11.32,39.81,39.81,0,0,1,0-27.93,35.21,35.21,0,0,1,7.07-11.42,33.55,33.55,0,0,1,10.77-7.67,33.75,33.75,0,0,1,38.27,7.67,35.21,35.21,0,0,1,7.07,11.42,37.68,37.68,0,0,1,1.43,4.56,39,39,0,0,1,1.1,9.37A39.74,39.74,0,0,1,730.9,936.92Z"/></svg>