<svg id="Capa_1" data-name="Capa 1" xmlns="http://www.w3.org/2000/svg" viewBox="0 0 1080 1080"><defs><style>.cls-1{fill:#5398c6;}.cls-2{fill:#252525;}</style></defs><path class="cls-1" d="M567.62,301.59a136.93,136.93,0,0,1,46.72,8.16V159.8H525a12.29,12.29,0,0,0-12.29,12.28v62.81a211.71,211.71,0,0,0-30.53,12.26l-49.62-49.62a12.28,12.28,0,0,0-17.37,0L341.8,270.9a12.26,12.26,0,0,0,0,17.36l47.66,47.66A209.32,209.32,0,0,0,376.53,364H318.07a12.28,12.28,0,0,0-12.28,12.27V480.06a12.28,12.28,0,0,0,12.28,12.28h51.74a211.3,211.3,0,0,0,14.36,39.26L343.6,572.17a12.28,12.28,0,0,0,0,17.37L417,662.9a12.28,12.28,0,0,0,17.37,0L472,625.23a212.27,212.27,0,0,0,40.68,17.62v54A12.3,12.3,0,0,0,525,709.18h89.37V568a137.3,137.3,0,1,1-46.72-266.41ZM421.82,364"/><path class="cls-2" d="M937.75,291.92a91.79,91.79,0,0,0-23.15,3,95.86,95.86,0,0,0-15,5.3c-52.6-126-177-214.57-322.08-214.57-148.55,0-275.42,92.84-325.74,223.66a92.16,92.16,0,0,0-23.14-3c-67.33,0-87.85,69-87.85,160.29S161.28,637,228.61,637a94.31,94.31,0,0,0,45-11.63L320,595.76q-2.42-3.84-4.72-7.79A304.47,304.47,0,0,1,292,330.4c42.48-116.52,154.26-199.71,285.48-199.71,167.77,0,303.78,136,303.78,303.79A302.43,302.43,0,0,1,844.2,580l47.74,30.52a94.29,94.29,0,0,0,45.81,12.07c67.33,0,75.45-83.81,75.45-175.14S1005.08,291.92,937.75,291.92Z"/><path class="cls-2" d="M842.65,747.33l.77,74.92c-2.24,20.64-19.34,11.88-19.34,11.88l-67-32.92-71.25-35a348.26,348.26,0,0,1-108.37,17.16c-114.38,0-215.92-55.05-279.53-140.1l38.11-24.37A303.21,303.21,0,0,0,577.49,738.27c105,0,197.48-53.23,252.06-134.17l38,24.27a348.27,348.27,0,0,1-25.78,33.85Z"/><circle class="cls-1" cx="563.34" cy="433.96" r="32.64"/><circle class="cls-1" cx="660.17" cy="433.96" r="32.64"/><circle class="cls-1" cx="757" cy="433.96" r="32.64"/><path class="cls-2" d="M112.15,864.35a4.57,4.57,0,0,1,1.13-2.75,3.44,3.44,0,0,1,2.75-1.22h26.8a4.59,4.59,0,0,1,2.8,1.13,3.48,3.48,0,0,1,1.45,2.85v40a2.89,2.89,0,0,0,2.88,2.89H189a2.89,2.89,0,0,0,2.89-2.89v-40a3.9,3.9,0,0,1,1.13-2.8,3.84,3.84,0,0,1,2.93-1.18h26.37a5.55,5.55,0,0,1,3.15.9,3.23,3.23,0,0,1,1.35,2.89V990.42a3.67,3.67,0,0,1-1.17,3,4.53,4.53,0,0,1-3.06,1H196a4.22,4.22,0,0,1-2.93-1,3.75,3.75,0,0,1-1.13-3V942.05a2.89,2.89,0,0,0-2.89-2.89H150a2.88,2.88,0,0,0-2.88,2.89v48.37a3.65,3.65,0,0,1-1.22,2.93,4.94,4.94,0,0,1-3.3,1H116c-2.52,0-3.82-1.18-3.88-3.52Z"/><path class="cls-2" d="M242.61,864.53a4.29,4.29,0,0,1,1-3,3.79,3.79,0,0,1,2.93-1.13H336.1a4,4,0,0,1,3.07,1.17,4.46,4.46,0,0,1,1.08,3.15V887a4.7,4.7,0,0,1-1.08,2.93,3.75,3.75,0,0,1-3.16,1.39H280.43a2.89,2.89,0,0,0-2.89,2.89v16.6a2.89,2.89,0,0,0,2.89,2.89h42.23a4.74,4.74,0,0,1,2.84.81,3.13,3.13,0,0,1,1.13,2.71v19.49a3.73,3.73,0,0,1-1,2.44,3.6,3.6,0,0,1-2.89,1.17H280.43a2.89,2.89,0,0,0-2.89,2.89v17.33a2.89,2.89,0,0,0,2.89,2.89h57.75q4.06,0,4.06,4.13v22.68a2.24,2.24,0,0,1-.72,1.62c-.24,1.68-1.48,2.52-3.7,2.52H246.58a4.23,4.23,0,0,1-2.89-.95,3.7,3.7,0,0,1-1.08-2.93Z"/><path class="cls-2" d="M357.84,864.26a4,4,0,0,1,1.09-2.8,3.84,3.84,0,0,1,3-1.17h26.71a4.19,4.19,0,0,1,2.8,1.08,3.94,3.94,0,0,1,1.36,2.89v95.29a2.89,2.89,0,0,0,2.89,2.89H442.4a4,4,0,0,1,2.79,1.08,3.85,3.85,0,0,1,1.18,3v23.74a4.3,4.3,0,0,1-1,2.79,3.81,3.81,0,0,1-2.93,1.36H364.7a6.86,6.86,0,0,1-6.86-6.86Z"/><path class="cls-2" d="M460.53,864.53a4.41,4.41,0,0,1,1-3,3.76,3.76,0,0,1,3-1.13h57.66a39.33,39.33,0,0,1,11.73,1.71A40.41,40.41,0,0,1,544,866.83a41.25,41.25,0,0,1,8.3,7.22,46.24,46.24,0,0,1,10.2,19.31,44.51,44.51,0,0,1-1.58,26.76,43.63,43.63,0,0,1-8.35,13.81,42.61,42.61,0,0,1-13,9.79,38.36,38.36,0,0,1-16.79,3.83H498.34a2.89,2.89,0,0,0-2.89,2.89v40.07c0,2.58-1.39,3.88-4.15,3.88H464.5a4.23,4.23,0,0,1-2.89-.95,3.7,3.7,0,0,1-1.08-2.93Zm68,39.53a16.38,16.38,0,0,0-1-5.42,15,15,0,0,0-2.75-4.82,14.66,14.66,0,0,0-4.38-3.48,12.31,12.31,0,0,0-5.82-1.35H498.34a2.89,2.89,0,0,0-2.89,2.89v24.36a2.89,2.89,0,0,0,2.89,2.89h16.24a13,13,0,0,0,5.87-1.31,13.66,13.66,0,0,0,4.37-3.38,15,15,0,0,0,2.71-4.79A16.83,16.83,0,0,0,528.48,904.06Z"/><path class="cls-2" d="M680.52,870.13a5.7,5.7,0,0,1,2.26,2.34,3.74,3.74,0,0,1-.27,3.43l-15.25,21.66a3.58,3.58,0,0,1-2.13,1.76,4,4,0,0,1-2.75-.77,34.42,34.42,0,0,0-9.74-5.14,35,35,0,0,0-11.28-1.81A32.7,32.7,0,0,0,617,902.07a35.57,35.57,0,0,0-7,11.37,38.11,38.11,0,0,0-2.52,13.9A37.73,37.73,0,0,0,610,941.19a35.15,35.15,0,0,0,7,11.28,32.81,32.81,0,0,0,24.37,10.42,35,35,0,0,0,21.2-7,4.19,4.19,0,0,1,2.71-.81,3.74,3.74,0,0,1,2.17,1.63l15.43,22.2a3.56,3.56,0,0,1,.27,3.34,5.81,5.81,0,0,1-2.26,2.25,71.82,71.82,0,0,1-18.27,8.8A67.82,67.82,0,0,1,642,996.37a68.54,68.54,0,0,1-48.78-20.17,70.09,70.09,0,0,1-10.78-13.89,67.65,67.65,0,0,1-6.95-16.43,70.61,70.61,0,0,1,0-36.73,69.54,69.54,0,0,1,17.73-30.54,66.88,66.88,0,0,1,13.95-10.78,70.43,70.43,0,0,1,16.46-7,69.77,69.77,0,0,1,38.81.54A70.17,70.17,0,0,1,680.52,870.13Z"/><path class="cls-2" d="M917.16,909.15a70.68,70.68,0,0,0-7-16.5,67.49,67.49,0,0,0-10.78-14,68.86,68.86,0,0,0-14-10.78,71,71,0,0,0-16.52-7,69.47,69.47,0,0,0-36.72,0,71,71,0,0,0-16.47,7,66.57,66.57,0,0,0-9.28,6.5,2.89,2.89,0,0,0-.41,4.1,74.17,74.17,0,0,1,8,11.19,78,78,0,0,1,7.54,17.9c0,.17.1.36.14.53a33.9,33.9,0,0,1,4.45-6,32.84,32.84,0,0,1,24.45-10.47,33.48,33.48,0,0,1,13.76,2.8,33.14,33.14,0,0,1,10.8,7.67,34.89,34.89,0,0,1,7.08,11.42,40,40,0,0,1,0,27.93,34.34,34.34,0,0,1-7.08,11.32,32.29,32.29,0,0,1-10.8,7.57,33.79,33.79,0,0,1-13.76,2.77,33.28,33.28,0,0,1-13.68-2.77,32.27,32.27,0,0,1-10.77-7.57,32.87,32.87,0,0,1-4.42-5.86c0,.21-.12.43-.17.64A77.07,77.07,0,0,1,814,965.35a75.32,75.32,0,0,1-7.93,11,2.9,2.9,0,0,0,.4,4.11,70,70,0,0,0,9.27,6.5,69.17,69.17,0,0,0,69.71,0,70.74,70.74,0,0,0,14-10.79,67.65,67.65,0,0,0,10.78-13.89,69.56,69.56,0,0,0,7-16.42,69.55,69.55,0,0,0,0-36.74Z"/><path class="cls-2" d="M931.53,864.53a4.41,4.41,0,0,1,1-3,3.79,3.79,0,0,1,3-1.13h58.3a43.89,43.89,0,0,1,17.41,3.47,45.45,45.45,0,0,1,14.17,9.43,44,44,0,0,1,9.52,14,42.09,42.09,0,0,1,3.48,17,40.42,40.42,0,0,1-1.67,11.68A43.79,43.79,0,0,1,1025,935.05a46.89,46.89,0,0,1-6.77,5.38,2.85,2.85,0,0,0-.94,3.74l21.92,41.28c.42.85,1,1.84,1.62,3a6.23,6.23,0,0,1,1,3,2.69,2.69,0,0,1-1,2.21,4,4,0,0,1-2.57.77h-31a4.46,4.46,0,0,1-2.75-.91,4.09,4.09,0,0,1-1.58-2.43l-21.11-39.71a2.89,2.89,0,0,0-2.55-1.53h-10a2.89,2.89,0,0,0-2.89,2.89v37.81c0,2.58-1.39,3.88-4.16,3.88H935.5a4.26,4.26,0,0,1-2.89-.95,3.7,3.7,0,0,1-1.08-2.93Zm70.66,40.07a15.7,15.7,0,0,0-1-5.42,17.76,17.76,0,0,0-2.8-5,16.42,16.42,0,0,0-4.33-3.79,14.87,14.87,0,0,0-5.6-2c-1.68-.13-3.26-.23-4.73-.32s-3.09-.14-4.83-.14h-9.56a2.89,2.89,0,0,0-2.89,2.89v27.34a2.89,2.89,0,0,0,2.89,2.89h13.71c1.08,0,2,0,2.89-.09s1.77-.15,2.79-.27a14.31,14.31,0,0,0,5.69-1.85,14.71,14.71,0,0,0,4.24-3.7,16.59,16.59,0,0,0,2.62-5A18.08,18.08,0,0,0,1002.19,904.6Z"/><path class="cls-2" d="M817.58,918.3a3.25,3.25,0,0,0,0-.44,63.85,63.85,0,0,0-1.83-8.71,71.06,71.06,0,0,0-6.94-16.5,66.8,66.8,0,0,0-8.89-12.06c-.62-.67-1.26-1.32-1.91-2a68.32,68.32,0,0,0-14-10.78,70.43,70.43,0,0,0-16.52-7,69.4,69.4,0,0,0-36.7,0,71.1,71.1,0,0,0-16.49,7,67.42,67.42,0,0,0-13.94,10.78,69.29,69.29,0,0,0-10.79,14,69.75,69.75,0,0,0-6.95,53.24,66.75,66.75,0,0,0,6.95,16.42,69.09,69.09,0,0,0,41.22,31.63A69.2,69.2,0,0,0,784,987a70.17,70.17,0,0,0,14-10.79c.65-.64,1.27-1.29,1.91-1.94a67.8,67.8,0,0,0,8.89-12,69.93,69.93,0,0,0,6.94-16.42,64.46,64.46,0,0,0,1.88-9v0Zm-35.4,18.62a32.65,32.65,0,0,1-1.41,4.5,34.64,34.64,0,0,1-7.07,11.32,32.57,32.57,0,0,1-10.82,7.57,35.39,35.39,0,0,1-27.45,0,32.68,32.68,0,0,1-10.77-7.57,34.64,34.64,0,0,1-7.07-11.32,39.81,39.81,0,0,1,0-27.93,35.21,35.21,0,0,1,7.07-11.42,33.55,33.55,0,0,1,10.77-7.67,33.75,33.75,0,0,1,38.27,7.67,35.21,35.21,0,0,1,7.07,11.42,37.68,37.68,0,0,1,1.43,4.56,39,39,0,0,1,1.1,9.37A39.74,39.74,0,0,1,782.18,936.92Z"/></svg>