<svg id="Capa_1" data-name="Capa 1" xmlns="http://www.w3.org/2000/svg"  viewBox="0 0 512 512"><defs><style>.cls-1{fill:#252525;}</style></defs><path class="cls-1" d="M17.46,223.65a2.34,2.34,0,0,1,.57-1.41,1.77,1.77,0,0,1,1.42-.63H33.2a2.43,2.43,0,0,1,1.44.58,1.8,1.8,0,0,1,.74,1.46v20.52a1.48,1.48,0,0,0,1.48,1.48h20a1.48,1.48,0,0,0,1.48-1.48V223.65a2,2,0,0,1,.58-1.43,2,2,0,0,1,1.5-.61H74a2.82,2.82,0,0,1,1.61.47,1.65,1.65,0,0,1,.7,1.48v64.79a1.87,1.87,0,0,1-.6,1.52,2.37,2.37,0,0,1-1.57.51H60.47a2.2,2.2,0,0,1-1.5-.51,1.93,1.93,0,0,1-.58-1.52V263.52A1.48,1.48,0,0,0,56.91,262h-20a1.48,1.48,0,0,0-1.48,1.48v24.83a1.86,1.86,0,0,1-.63,1.5,2.48,2.48,0,0,1-1.69.53H19.45c-1.3,0-2-.6-2-1.8Z"/><path class="cls-1" d="M84.41,223.74a2.18,2.18,0,0,1,.53-1.55,1.94,1.94,0,0,1,1.5-.58h45.95a2,2,0,0,1,1.57.6,2.29,2.29,0,0,1,.56,1.62v11.45a2.41,2.41,0,0,1-.56,1.5,1.92,1.92,0,0,1-1.62.72H103.81a1.48,1.48,0,0,0-1.48,1.48v8.52a1.48,1.48,0,0,0,1.48,1.48h21.68a2.39,2.39,0,0,1,1.45.42,1.59,1.59,0,0,1,.58,1.39v10A1.92,1.92,0,0,1,127,262a1.83,1.83,0,0,1-1.48.6H103.81a1.49,1.49,0,0,0-1.48,1.49V273a1.48,1.48,0,0,0,1.48,1.48h29.64a1.86,1.86,0,0,1,2.08,2.12v11.64a1.13,1.13,0,0,1-.37.83q-.18,1.29-1.89,1.29H86.44A2.18,2.18,0,0,1,85,289.9a1.91,1.91,0,0,1-.55-1.51Z"/><path class="cls-1" d="M143.54,223.6a2,2,0,0,1,.56-1.43,2,2,0,0,1,1.53-.6h13.7a2.15,2.15,0,0,1,1.44.55,2,2,0,0,1,.69,1.48v48.91A1.49,1.49,0,0,0,163,274h24a2.05,2.05,0,0,1,1.44.56,2,2,0,0,1,.6,1.52v12.18a2.23,2.23,0,0,1-.53,1.44,2,2,0,0,1-1.51.69H147.06a3.52,3.52,0,0,1-3.52-3.52Z"/><path class="cls-1" d="M196.24,223.74a2.26,2.26,0,0,1,.51-1.55,2,2,0,0,1,1.53-.58h29.59a20.38,20.38,0,0,1,6,.88,20.69,20.69,0,0,1,5.18,2.43,21.2,21.2,0,0,1,4.27,3.71,23.81,23.81,0,0,1,5.23,9.91,22.9,22.9,0,0,1-.81,13.73,22.36,22.36,0,0,1-4.29,7.09,21.9,21.9,0,0,1-6.66,5,19.68,19.68,0,0,1-8.62,2H215.64a1.48,1.48,0,0,0-1.48,1.48v20.56c0,1.33-.71,2-2.13,2H198.28a2.21,2.21,0,0,1-1.49-.48,1.91,1.91,0,0,1-.55-1.51ZM231.11,244a8.19,8.19,0,0,0-.49-2.78A7.49,7.49,0,0,0,227,237a6.21,6.21,0,0,0-3-.7h-8.34a1.49,1.49,0,0,0-1.48,1.49v12.5a1.48,1.48,0,0,0,1.48,1.48H224a6.62,6.62,0,0,0,3-.67,7.07,7.07,0,0,0,2.24-1.74,7.5,7.5,0,0,0,1.39-2.45A8.49,8.49,0,0,0,231.11,244Z"/><path class="cls-1" d="M309.14,226.61a2.84,2.84,0,0,1,1.15,1.21,1.93,1.93,0,0,1-.13,1.76l-7.83,11.11a1.82,1.82,0,0,1-1.09.91,2.07,2.07,0,0,1-1.41-.4,17.74,17.74,0,0,0-5-2.64,18.15,18.15,0,0,0-5.79-.92A16.76,16.76,0,0,0,276.53,243a18.4,18.4,0,0,0-3.61,5.83,19.62,19.62,0,0,0-1.29,7.13,19.36,19.36,0,0,0,1.29,7.11,18.1,18.1,0,0,0,3.61,5.79A16.85,16.85,0,0,0,289,274.22a18,18,0,0,0,10.88-3.61,2.16,2.16,0,0,1,1.39-.42,1.87,1.87,0,0,1,1.11.84l7.92,11.39a1.81,1.81,0,0,1,.14,1.71,3,3,0,0,1-1.16,1.16,36.73,36.73,0,0,1-9.38,4.51,34.53,34.53,0,0,1-10.58,1.6,35.1,35.1,0,0,1-17.87-4.81,35.88,35.88,0,0,1-12.69-12.67,34.65,34.65,0,0,1-3.57-8.43,35.47,35.47,0,0,1,3.57-27.32,35.91,35.91,0,0,1,5.53-7.2,34.64,34.64,0,0,1,7.16-5.54,36.59,36.59,0,0,1,8.45-3.56,35.69,35.69,0,0,1,19.91.28A36.13,36.13,0,0,1,309.14,226.61Z"/><path class="cls-1" d="M430.58,246.64a36.89,36.89,0,0,0-3.57-8.47,34.88,34.88,0,0,0-5.54-7.2,35.58,35.58,0,0,0-7.18-5.54,36.39,36.39,0,0,0-8.48-3.56,35.61,35.61,0,0,0-18.85,0,36.52,36.52,0,0,0-8.45,3.56,36,36,0,0,0-4.76,3.34,1.49,1.49,0,0,0-.21,2.1,37.89,37.89,0,0,1,4.08,5.75,40,40,0,0,1,3.87,9.18,2.86,2.86,0,0,1,.07.28,17,17,0,0,1,7.81-7,17,17,0,0,1,7-1.44,17.3,17.3,0,0,1,7.06,1.44A16.91,16.91,0,0,1,409,243a17.86,17.86,0,0,1,3.63,5.86,20.4,20.4,0,0,1,0,14.33A17.63,17.63,0,0,1,409,269a16.63,16.63,0,0,1-5.54,3.89,17.46,17.46,0,0,1-7.06,1.42,17.18,17.18,0,0,1-7-1.42,16.86,16.86,0,0,1-7.79-6.9l-.09.33a39.51,39.51,0,0,1-3.87,9.15,37.75,37.75,0,0,1-4.07,5.66,1.49,1.49,0,0,0,.21,2.11,35.88,35.88,0,0,0,4.75,3.34,35.56,35.56,0,0,0,35.78,0,36.7,36.7,0,0,0,7.18-5.54,34.73,34.73,0,0,0,5.54-7.13,35.86,35.86,0,0,0,3.57-8.43,35.88,35.88,0,0,0,0-18.85Z"/><path class="cls-1" d="M438,223.74a2.26,2.26,0,0,1,.51-1.55,2,2,0,0,1,1.53-.58h29.92a22.4,22.4,0,0,1,8.93,1.79,23,23,0,0,1,7.27,4.84,22.51,22.51,0,0,1,4.89,7.15,21.6,21.6,0,0,1,1.78,8.73,20.77,20.77,0,0,1-.85,6,22.2,22.2,0,0,1-2.39,5.32,22.81,22.81,0,0,1-3.63,4.5,23.5,23.5,0,0,1-3.48,2.75,1.48,1.48,0,0,0-.48,1.92L493.2,285.8c.22.43.49.94.83,1.53a3.13,3.13,0,0,1,.51,1.53,1.38,1.38,0,0,1-.48,1.13,2.07,2.07,0,0,1-1.32.39H476.85a2.31,2.31,0,0,1-1.41-.46,2.06,2.06,0,0,1-.81-1.25L463.8,268.29a1.5,1.5,0,0,0-1.31-.78h-5.13a1.48,1.48,0,0,0-1.48,1.48v19.4c0,1.33-.72,2-2.14,2H440a2.18,2.18,0,0,1-1.48-.48,1.92,1.92,0,0,1-.56-1.51Zm36.26,20.56a8,8,0,0,0-.51-2.77,8.9,8.9,0,0,0-1.43-2.55,8.66,8.66,0,0,0-2.22-1.95,7.67,7.67,0,0,0-2.88-1l-2.43-.17c-.75,0-1.58-.07-2.47-.07h-4.91a1.49,1.49,0,0,0-1.48,1.49v14a1.48,1.48,0,0,0,1.48,1.48h7c.55,0,1,0,1.48-.05s.91-.07,1.43-.14a7.39,7.39,0,0,0,2.92-.94,7.85,7.85,0,0,0,2.18-1.9,8.63,8.63,0,0,0,1.34-2.55A9.21,9.21,0,0,0,474.21,244.3Z"/><path class="cls-1" d="M379.47,251.34a1.77,1.77,0,0,0,0-.23,33.46,33.46,0,0,0-.94-4.47,36.86,36.86,0,0,0-3.56-8.47,34.73,34.73,0,0,0-4.57-6.19c-.31-.34-.64-.68-1-1a35.09,35.09,0,0,0-7.19-5.54,35.85,35.85,0,0,0-8.48-3.56,35.53,35.53,0,0,0-18.83,0,36.06,36.06,0,0,0-8.46,3.56A34.64,34.64,0,0,0,319.3,231a35.54,35.54,0,0,0-5.53,7.2,34.43,34.43,0,0,0-3.57,8.47,35.88,35.88,0,0,0,0,18.85,33.52,33.52,0,0,0,3.57,8.43,35.88,35.88,0,0,0,12.69,12.67,34.84,34.84,0,0,0,8.46,3.56,35.81,35.81,0,0,0,18.83,0,34.65,34.65,0,0,0,8.48-3.56,36.18,36.18,0,0,0,7.19-5.54c.33-.33.65-.66,1-1a34.66,34.66,0,0,0,4.57-6.13,35.84,35.84,0,0,0,3.56-8.43,32.23,32.23,0,0,0,1-4.61h0Zm-18.16,9.55a16.33,16.33,0,0,1-.73,2.31A17.8,17.8,0,0,1,357,269a16.77,16.77,0,0,1-5.55,3.89,18.16,18.16,0,0,1-14.08,0,16.79,16.79,0,0,1-5.53-3.89,17.8,17.8,0,0,1-3.63-5.81,20.4,20.4,0,0,1,0-14.33,18,18,0,0,1,3.63-5.86A17.28,17.28,0,0,1,357,243a18,18,0,0,1,3.63,5.86,18.71,18.71,0,0,1,.74,2.34,20,20,0,0,1,.56,4.81A20.36,20.36,0,0,1,361.31,260.89Z"/></svg>