<svg id="Capa_1" data-name="Capa 1" xmlns="http://www.w3.org/2000/svg" viewBox="0 0 512 512"><defs><style>.cls-1{fill:#1963a4;}.cls-2{fill:#fff;}</style></defs><circle class="cls-1" cx="256" cy="256" r="222.44"/><path class="cls-2" d="M251.82,185a61.25,61.25,0,0,1,20.85,3.64v-66.9H232.8a5.49,5.49,0,0,0-5.49,5.48v28a93.09,93.09,0,0,0-13.62,5.47l-22.13-22.14a5.48,5.48,0,0,0-7.75,0l-32.73,32.73a5.48,5.48,0,0,0,0,7.75l21.26,21.26a93.12,93.12,0,0,0-5.77,12.54H140.49A5.48,5.48,0,0,0,135,218.3v46.3a5.48,5.48,0,0,0,5.48,5.47h23.08A94.7,94.7,0,0,0,170,287.59l-18.1,18.1a5.48,5.48,0,0,0,0,7.75l32.73,32.73a5.48,5.48,0,0,0,7.75,0l16.81-16.81a94.19,94.19,0,0,0,18.14,7.86v24.11a5.49,5.49,0,0,0,5.49,5.48h39.87v-63A61.26,61.26,0,1,1,251.82,185Zm-65,27.86"/><path class="cls-2" d="M417,180.66A40.84,40.84,0,0,0,406.63,182a42.82,42.82,0,0,0-6.71,2.37,155.72,155.72,0,0,0-289,4.05,41.3,41.3,0,0,0-10.32-1.32c-30,0-39.19,30.77-39.19,71.51s9.15,76,39.19,76a42.11,42.11,0,0,0,20.09-5.19l20.68-13.22c-.72-1.14-1.42-2.3-2.11-3.47a135.53,135.53,0,1,1,236-3.54l21.29,13.61A42.05,42.05,0,0,0,417,328.2c30,0,33.66-37.39,33.66-78.14S447,180.66,417,180.66Z"/><path class="cls-2" d="M374.52,383.83l.35,33.43c-1,9.2-8.63,5.3-8.63,5.3l-29.88-14.69-31.78-15.62A155.9,155.9,0,0,1,131.52,337.4l17-10.87a135.55,135.55,0,0,0,220.16-6.6l16.95,10.83a153.68,153.68,0,0,1-11.5,15.1Z"/><circle class="cls-2" cx="249.92" cy="244.02" r="14.56"/><circle class="cls-2" cx="293.11" cy="244.02" r="14.56"/><circle class="cls-2" cx="336.31" cy="244.02" r="14.56"/></svg>