<svg id="Capa_1" data-name="Capa 1" xmlns="http://www.w3.org/2000/svg" viewBox="0 0 512 512"><defs><style>.cls-1{fill:#252525;}.cls-2{fill:#fff;}</style></defs><circle class="cls-1" cx="256" cy="256" r="232.21"/><path class="cls-2" d="M251.64,181.85a63.77,63.77,0,0,1,21.76,3.8V115.82H231.78a5.72,5.72,0,0,0-5.72,5.72v29.25a97.26,97.26,0,0,0-14.22,5.71l-23.11-23.11a5.73,5.73,0,0,0-8.09,0l-34.17,34.17a5.73,5.73,0,0,0,0,8.09l22.2,22.19a97,97,0,0,0-6,13.09H135.42a5.72,5.72,0,0,0-5.72,5.72V265a5.72,5.72,0,0,0,5.72,5.72h24.09A99.87,99.87,0,0,0,166.2,289l-18.89,18.89a5.71,5.71,0,0,0,0,8.09l34.17,34.16a5.7,5.7,0,0,0,8.08,0l17.55-17.54a99,99,0,0,0,18.95,8.21V366a5.73,5.73,0,0,0,5.72,5.73H273.4V305.93a63.95,63.95,0,1,1-21.76-124.08Zm-67.9,29.08"/><path class="cls-2" d="M424,177.35a43.05,43.05,0,0,0-10.78,1.38,45.13,45.13,0,0,0-7,2.47,162.54,162.54,0,0,0-301.7,4.24,42.72,42.72,0,0,0-10.78-1.39c-31.36,0-40.92,32.12-40.92,74.65s9.56,79.37,40.92,79.37a43.92,43.92,0,0,0,21-5.42l21.59-13.8c-.76-1.19-1.49-2.4-2.21-3.62a141.49,141.49,0,1,1,246.34-3.7l22.23,14.22A44,44,0,0,0,424,331.37c31.36,0,35.14-39,35.14-81.57S455.38,177.35,424,177.35Z"/><path class="cls-2" d="M379.73,389.44l.36,34.9c-1,9.61-9,5.53-9,5.53l-31.19-15.33-33.18-16.31A162.72,162.72,0,0,1,126.05,341l17.75-11.35a141.51,141.51,0,0,0,229.83-6.88L391.32,334a161.72,161.72,0,0,1-12,15.77Z"/><circle class="cls-2" cx="249.65" cy="243.5" r="15.2"/><circle class="cls-2" cx="294.74" cy="243.5" r="15.2"/><circle class="cls-2" cx="339.84" cy="243.5" r="15.2"/></svg>