<svg id="Capa_1" data-name="Capa 1" xmlns="http://www.w3.org/2000/svg" viewBox="0 0 1080 1080"><defs><style>.cls-1{fill:#252525;}.cls-2{fill:#5398c6;}</style></defs><path class="cls-1" d="M529.8,285.19a149.61,149.61,0,0,1,50.92,8.89V130.68h-97.4a13.4,13.4,0,0,0-13.39,13.39v68.44a229.27,229.27,0,0,0-33.27,13.37L382.59,171.8a13.38,13.38,0,0,0-18.93,0l-80,79.95a13.37,13.37,0,0,0,0,18.92l51.94,51.94a226.61,226.61,0,0,0-14.08,30.63H257.86a13.39,13.39,0,0,0-13.39,13.38V479.69a13.39,13.39,0,0,0,13.39,13.38h56.37a231.23,231.23,0,0,0,15.65,42.78l-44.21,44.22a13.37,13.37,0,0,0,0,18.92l79.95,80a13.37,13.37,0,0,0,18.92,0l41.06-41.06a231.12,231.12,0,0,0,44.33,19.21V716a13.41,13.41,0,0,0,13.39,13.39h97.4V575.52A149.63,149.63,0,1,1,529.8,285.19ZM370.91,353.24"/><path class="cls-2" d="M933.15,274.66a100.17,100.17,0,0,0-25.22,3.23,104.31,104.31,0,0,0-16.39,5.78c-57.32-137.31-192.88-233.83-351-233.83-161.88,0-300.14,101.18-355,243.74a100.29,100.29,0,0,0-25.22-3.24C87,290.34,64.63,365.5,64.63,465S87,650.74,160.37,650.74a102.87,102.87,0,0,0,49.06-12.68L260,605.77c-1.76-2.79-3.48-5.63-5.15-8.49a331.83,331.83,0,0,1-25.35-280.69C275.75,189.62,397.56,99,540.55,99,723.39,99,871.6,247.18,871.6,430a329.59,329.59,0,0,1-40.4,158.62l52,33.26a102.87,102.87,0,0,0,49.92,13.15c73.37,0,82.22-91.33,82.22-190.86S1006.52,274.66,933.15,274.66Z"/><path class="cls-2" d="M829.51,770.94l.85,81.65c-2.45,22.49-21.08,12.94-21.08,12.94l-73-35.87-77.64-38.17A379.3,379.3,0,0,1,540.55,810.2c-124.64,0-235.29-60-304.62-152.68L277.47,631c60.48,79.09,155.81,130.1,263.08,130.1,114.38,0,215.21-58,274.69-146.21l41.41,26.44a379.67,379.67,0,0,1-28.1,36.9Z"/><circle class="cls-1" cx="525.14" cy="429.44" r="35.57"/><circle class="cls-1" cx="630.66" cy="429.44" r="35.57"/><circle class="cls-1" cx="736.18" cy="429.44" r="35.57"/><path class="cls-1" d="M623.73,898.62a6,6,0,0,1,2.35,2.44,3.9,3.9,0,0,1-.29,3.58L609.9,927.2a3.64,3.64,0,0,1-2.21,1.83,4.15,4.15,0,0,1-2.86-.79A35.77,35.77,0,0,0,582.92,921a34,34,0,0,0-25.39,10.9,36.93,36.93,0,0,0-7.33,11.85,41,41,0,0,0,0,28.91,36.47,36.47,0,0,0,7.33,11.75,34.2,34.2,0,0,0,25.39,10.86A36.4,36.4,0,0,0,605,987.94a4.38,4.38,0,0,1,2.83-.85,3.84,3.84,0,0,1,2.25,1.7l16.08,23.13a3.69,3.69,0,0,1,.28,3.47,6,6,0,0,1-2.35,2.35,74.53,74.53,0,0,1-19,9.17,70.53,70.53,0,0,1-21.48,3.25,71.16,71.16,0,0,1-36.3-9.78,73,73,0,0,1-25.76-25.72,70.61,70.61,0,0,1-7.24-17.11,73.35,73.35,0,0,1,0-38.27,72.38,72.38,0,0,1,18.48-31.82,69.94,69.94,0,0,1,14.52-11.24A73.72,73.72,0,0,1,564.44,889a72.8,72.8,0,0,1,40.43.56A73.54,73.54,0,0,1,623.73,898.62Z"/><path class="cls-1" d="M619.94,958.42a71.33,71.33,0,0,1,9.79-36.34A72.39,72.39,0,0,1,641,907.46a69.8,69.8,0,0,1,14.54-11.24A73.61,73.61,0,0,1,672.68,889a71.87,71.87,0,0,1,38.24,0,73.45,73.45,0,0,1,17.22,7.24A71.58,71.58,0,0,1,754,922.08a74.38,74.38,0,0,1,7.24,17.2,72,72,0,0,1,0,38.27A72.63,72.63,0,0,1,754,994.66a70.63,70.63,0,0,1-11.25,14.48,73.64,73.64,0,0,1-14.58,11.24,72,72,0,0,1-72.63,0,72.85,72.85,0,0,1-25.78-25.72,69.86,69.86,0,0,1-7.25-17.11A71.45,71.45,0,0,1,619.94,958.42Zm36.39-.1A40,40,0,0,0,659,972.9a36.08,36.08,0,0,0,7.37,11.8,34.33,34.33,0,0,0,11.22,7.89,37,37,0,0,0,28.59,0,34.23,34.23,0,0,0,11.27-7.89,36.08,36.08,0,0,0,7.37-11.8,41.56,41.56,0,0,0,0-29.1,36.43,36.43,0,0,0-7.37-11.9,35,35,0,0,0-51.08,0A36.43,36.43,0,0,0,659,943.8,40,40,0,0,0,656.33,958.32Z"/><path class="cls-1" d="M770.89,958.42a71.33,71.33,0,0,1,9.79-36.34,72.39,72.39,0,0,1,11.24-14.62,70,70,0,0,1,14.53-11.24A74,74,0,0,1,823.62,889a71.91,71.91,0,0,1,38.25,0,73.45,73.45,0,0,1,17.22,7.24,71.58,71.58,0,0,1,25.83,25.86,74.38,74.38,0,0,1,7.24,17.2,72,72,0,0,1,0,38.27,72.63,72.63,0,0,1-7.24,17.11,70.63,70.63,0,0,1-11.25,14.48,73.64,73.64,0,0,1-14.58,11.24,72,72,0,0,1-72.64,0,72.93,72.93,0,0,1-25.77-25.72,69.86,69.86,0,0,1-7.25-17.11A71.45,71.45,0,0,1,770.89,958.42Zm36.39-.1a39.79,39.79,0,0,0,2.63,14.58,36.08,36.08,0,0,0,7.37,11.8,34.33,34.33,0,0,0,11.22,7.89,37,37,0,0,0,28.59,0,34.23,34.23,0,0,0,11.27-7.89,36.08,36.08,0,0,0,7.37-11.8,41.56,41.56,0,0,0,0-29.1,36.43,36.43,0,0,0-7.37-11.9,35,35,0,0,0-51.08,0,36.43,36.43,0,0,0-7.37,11.9A39.81,39.81,0,0,0,807.28,958.32Z"/><path class="cls-1" d="M926.65,892.79a4.58,4.58,0,0,1,1-3.15,3.89,3.89,0,0,1,3.1-1.18h60.74a45.7,45.7,0,0,1,18.15,3.62,47.43,47.43,0,0,1,14.76,9.83,45.86,45.86,0,0,1,9.92,14.53,44,44,0,0,1,3.62,17.72,42,42,0,0,1-1.74,12.17,45.45,45.45,0,0,1-4.84,10.82,46.23,46.23,0,0,1-7.38,9.12,48,48,0,0,1-6.83,5.44,3.31,3.31,0,0,0-1.08,4.3l22.71,42.77c.44.88,1,1.91,1.7,3.1a6.44,6.44,0,0,1,1,3.1,2.79,2.79,0,0,1-1,2.31,4.14,4.14,0,0,1-2.68.8h-32.25a4.72,4.72,0,0,1-2.86-.94,4.29,4.29,0,0,1-1.65-2.54L979.2,983.4a3.33,3.33,0,0,0-2.93-1.76h-9.92A3.32,3.32,0,0,0,963,985V1024q0,4.05-4.32,4H930.78a4.42,4.42,0,0,1-3-1,3.87,3.87,0,0,1-1.12-3.06Zm73.62,41.74a16.28,16.28,0,0,0-1-5.64,18.45,18.45,0,0,0-2.91-5.17,17.34,17.34,0,0,0-4.52-4A15.63,15.63,0,0,0,986,917.7l-4.93-.32c-1.54-.1-3.22-.15-5-.15h-9.66a3.32,3.32,0,0,0-3.32,3.32v27.87a3.32,3.32,0,0,0,3.32,3.32h14c1.13,0,2.13,0,3-.09s1.85-.16,2.92-.29a14.76,14.76,0,0,0,5.92-1.92,15.55,15.55,0,0,0,4.42-3.86,17.06,17.06,0,0,0,2.73-5.17A18.94,18.94,0,0,0,1000.27,934.53Z"/><path class="cls-2" d="M38.46,892.6a4.74,4.74,0,0,1,1.17-2.87,3.6,3.6,0,0,1,2.87-1.27H70.43a4.79,4.79,0,0,1,2.91,1.18,3.64,3.64,0,0,1,1.51,3v41.33a3.31,3.31,0,0,0,3.31,3.32h40.1a3.31,3.31,0,0,0,3.31-3.32V892.61a4.1,4.1,0,0,1,1.18-2.92,4,4,0,0,1,3-1.23h27.47a5.8,5.8,0,0,1,3.28.94,3.36,3.36,0,0,1,1.41,3V1024a3.84,3.84,0,0,1-1.22,3.1,4.75,4.75,0,0,1-3.19,1H125.8a4.42,4.42,0,0,1-3-1,3.92,3.92,0,0,1-1.18-3.1V973.86a3.32,3.32,0,0,0-3.31-3.32H78.16a3.32,3.32,0,0,0-3.31,3.32V1024a3.82,3.82,0,0,1-1.27,3.06,5.14,5.14,0,0,1-3.44,1.08H42.5c-2.63,0-4-1.23-4-3.67Z"/><path class="cls-2" d="M173.73,892.79a4.46,4.46,0,0,1,1.08-3.15,3.92,3.92,0,0,1,3.05-1.18h93.28a4.15,4.15,0,0,1,3.2,1.22,4.65,4.65,0,0,1,1.13,3.28v23.25a4.91,4.91,0,0,1-1.13,3,3.91,3.91,0,0,1-3.29,1.45H213.44a3.32,3.32,0,0,0-3.32,3.32v16.68a3.31,3.31,0,0,0,3.32,3.32h43.69a4.89,4.89,0,0,1,3,.85,3.21,3.21,0,0,1,1.18,2.82V968a3.89,3.89,0,0,1-1,2.53,3.7,3.7,0,0,1-3,1.23H213.44a3.31,3.31,0,0,0-3.32,3.31v17.44a3.32,3.32,0,0,0,3.32,3.32H273.3c2.82,0,4.23,1.43,4.23,4.31v23.63a2.32,2.32,0,0,1-.75,1.68q-.37,2.63-3.85,2.63H177.86a4.38,4.38,0,0,1-3-1,3.87,3.87,0,0,1-1.13-3.06Z"/><path class="cls-2" d="M291.76,892.51a4.17,4.17,0,0,1,1.12-2.92,4.05,4.05,0,0,1,3.11-1.22h27.83a4.39,4.39,0,0,1,2.91,1.13,4,4,0,0,1,1.41,3v99a3.32,3.32,0,0,0,3.32,3.31h48.4a4.17,4.17,0,0,1,2.91,1.13A4,4,0,0,1,384,999v24.73a4.5,4.5,0,0,1-1.08,2.92,4,4,0,0,1-3.05,1.41H299.21a7.45,7.45,0,0,1-7.45-7.46Z"/><path class="cls-2" d="M398.5,892.79a4.58,4.58,0,0,1,1-3.15,3.9,3.9,0,0,1,3.1-1.18h60.08a41,41,0,0,1,12.23,1.79,41.68,41.68,0,0,1,10.53,4.94,42.62,42.62,0,0,1,8.65,7.52,48.13,48.13,0,0,1,10.62,20.12,46.35,46.35,0,0,1-1.64,27.88,45.49,45.49,0,0,1-8.7,14.38,44.21,44.21,0,0,1-13.54,10.2,39.66,39.66,0,0,1-17.49,4H438.2a3.32,3.32,0,0,0-3.32,3.32V1024q0,4.05-4.32,4H402.63a4.38,4.38,0,0,1-3-1,3.84,3.84,0,0,1-1.13-3.06ZM469.3,934a16.93,16.93,0,0,0-1-5.64,15.75,15.75,0,0,0-2.87-5,15.19,15.19,0,0,0-4.56-3.62,12.83,12.83,0,0,0-6.06-1.41H438.2a3.32,3.32,0,0,0-3.32,3.31v24.78a3.32,3.32,0,0,0,3.32,3.31h16.62a13.48,13.48,0,0,0,6.11-1.36,14.1,14.1,0,0,0,4.56-3.53,15.63,15.63,0,0,0,2.82-5A17.46,17.46,0,0,0,469.3,934Z"/></svg>