<svg id="Capa_1" data-name="Capa 1" xmlns="http://www.w3.org/2000/svg" viewBox="0 0 1080 1080"><defs><style>.cls-1{fill:#252525;}.cls-2{fill:#fff;}</style></defs><circle class="cls-1" cx="540" cy="540" r="501.54"/><path class="cls-2" d="M530.58,379.85a137.76,137.76,0,0,1,47,8.21V237.22h-89.9a12.37,12.37,0,0,0-12.36,12.36v63.18a212,212,0,0,0-30.71,12.34L394.7,275.18a12.36,12.36,0,0,0-17.47,0L303.44,349a12.34,12.34,0,0,0,0,17.47l47.93,47.93a210.56,210.56,0,0,0-13,28.28h-58.8A12.36,12.36,0,0,0,267.21,455V559.38a12.36,12.36,0,0,0,12.36,12.35h52a213.8,213.8,0,0,0,14.45,39.49L305.24,652a12.34,12.34,0,0,0,0,17.47L379,743.3a12.34,12.34,0,0,0,17.47,0l37.89-37.9a213.54,213.54,0,0,0,40.92,17.73v54.36a12.37,12.37,0,0,0,12.36,12.35h89.9v-142a138.11,138.11,0,1,1-47-268ZM383.93,442.66"/><path class="cls-2" d="M902.89,370.13a92.73,92.73,0,0,0-23.27,3,96.13,96.13,0,0,0-15.13,5.34c-52.91-126.75-178-215.84-324-215.84-149.43,0-277,93.39-327.65,225a92.42,92.42,0,0,0-23.28-3c-67.73,0-88.37,69.38-88.37,161.24s20.64,171.42,88.37,171.42a94.85,94.85,0,0,0,45.29-11.7l46.63-29.8q-2.44-3.87-4.76-7.84a306.28,306.28,0,0,1-23.39-259.09C296.08,291.63,408.52,208,540.51,208c168.77,0,305.58,136.81,305.58,305.58a304.14,304.14,0,0,1-37.3,146.41l48,30.7a94.78,94.78,0,0,0,46.07,12.15c67.74,0,75.9-84.31,75.9-176.18S970.63,370.13,902.89,370.13Z"/><path class="cls-2" d="M807.24,828.22l.77,75.37c-2.25,20.75-19.45,11.94-19.45,11.94l-67.37-33.1-71.66-35.24a350.27,350.27,0,0,1-109,17.27c-115,0-217.18-55.38-281.18-140.93L297.67,699A305,305,0,0,0,540.51,819.11c105.58,0,198.65-53.55,253.55-135l38.22,24.42a350.9,350.9,0,0,1-25.93,34.06Z"/><circle class="cls-2" cx="526.28" cy="513" r="32.84"/><circle class="cls-2" cx="623.68" cy="513" r="32.84"/><circle class="cls-2" cx="721.08" cy="513" r="32.84"/></svg>