<svg id="Capa_1" data-name="Capa 1" xmlns="http://www.w3.org/2000/svg" viewBox="0 0 1546.76 1204.31"><defs><style>.cls-1{fill:#252525;}.cls-2{fill:#5398c6;}.cls-3{fill:#145aa2;}</style></defs><path class="cls-1" d="M381,168.28a79.84,79.84,0,0,1,27.2,4.75V85.72h-52A7.16,7.16,0,0,0,349,92.88v36.57a123.81,123.81,0,0,0-17.78,7.14L302.31,107.7a7.13,7.13,0,0,0-10.11,0l-42.72,42.71a7.15,7.15,0,0,0,0,10.11l27.75,27.75a121.38,121.38,0,0,0-7.52,16.37h-34a7.16,7.16,0,0,0-7.16,7.15V272.2a7.16,7.16,0,0,0,7.16,7.15h30.12a123.56,123.56,0,0,0,8.36,22.86l-23.62,23.62a7.13,7.13,0,0,0,0,10.11l42.71,42.72a7.16,7.16,0,0,0,10.12,0l21.93-21.94A123.35,123.35,0,0,0,349,367v31.47a7.15,7.15,0,0,0,7.15,7.15h52V323.4A79.94,79.94,0,1,1,381,168.28Zm-84.9,36.36"/><path class="cls-2" d="M596.47,162.65A53.67,53.67,0,0,0,583,164.38a55.15,55.15,0,0,0-8.75,3.09,203.22,203.22,0,0,0-377.2,5.29A53.61,53.61,0,0,0,183.58,171c-39.21,0-51.15,40.16-51.15,93.33s11.94,99.23,51.15,99.23a54.83,54.83,0,0,0,26.21-6.78l27-17.25q-1.41-2.24-2.76-4.53a176.87,176.87,0,1,1,308-4.62l27.79,17.77a54.88,54.88,0,0,0,26.67,7c39.21,0,43.94-48.8,43.94-102S635.68,162.65,596.47,162.65Z"/><path class="cls-2" d="M541.1,427.82l.45,43.62c-1.3,12-11.26,6.91-11.26,6.91l-39-19.16L449.81,438.8A203.41,203.41,0,0,1,224,367.21L246.15,353a176.9,176.9,0,0,0,287.33-8.61l22.12,14.13a201.51,201.51,0,0,1-15,19.71Z"/><circle class="cls-1" cx="378.48" cy="245.35" r="19.01"/><circle class="cls-1" cx="434.86" cy="245.35" r="19.01"/><circle class="cls-1" cx="491.24" cy="245.35" r="19.01"/><path class="cls-2" d="M1100.29,168.28A79.85,79.85,0,0,1,1127.5,173V85.72h-52a7.17,7.17,0,0,0-7.16,7.16v36.57a123.22,123.22,0,0,0-17.77,7.14l-28.89-28.89a7.15,7.15,0,0,0-10.12,0l-42.71,42.71a7.13,7.13,0,0,0,0,10.11l27.75,27.75A120.21,120.21,0,0,0,989,204.64H955a7.15,7.15,0,0,0-7.15,7.15V272.2a7.15,7.15,0,0,0,7.15,7.15h30.12a123.59,123.59,0,0,0,8.37,22.86l-23.63,23.62a7.15,7.15,0,0,0,0,10.11l42.72,42.72a7.15,7.15,0,0,0,10.11,0l21.94-21.94A123.26,123.26,0,0,0,1068.3,367v31.47a7.16,7.16,0,0,0,7.16,7.15h52V323.4a79.94,79.94,0,1,1-27.21-155.12Zm-84.89,36.36"/><path class="cls-1" d="M1315.8,162.65a53.61,53.61,0,0,0-13.47,1.73,55.26,55.26,0,0,0-8.76,3.09,203.21,203.21,0,0,0-377.19,5.29A53.69,53.69,0,0,0,902.9,171c-39.2,0-51.15,40.16-51.15,93.33s12,99.23,51.15,99.23a54.87,54.87,0,0,0,26.22-6.78l27-17.25q-1.41-2.24-2.75-4.53a176.88,176.88,0,1,1,308-4.62l27.8,17.77a54.85,54.85,0,0,0,26.67,7c39.21,0,43.93-48.8,43.93-102S1355,162.65,1315.8,162.65Z"/><path class="cls-1" d="M1260.43,427.82l.45,43.62c-1.31,12-11.26,6.91-11.26,6.91l-39-19.16-41.48-20.39a203.42,203.42,0,0,1-225.86-71.59L965.47,353a176.9,176.9,0,0,0,287.33-8.61l22.13,14.13a203.1,203.1,0,0,1-15,19.71Z"/><circle class="cls-2" cx="1097.8" cy="245.35" r="19.01"/><circle class="cls-2" cx="1154.18" cy="245.35" r="19.01"/><circle class="cls-2" cx="1210.56" cy="245.35" r="19.01"/><path class="cls-1" d="M139.54,494.79a2.61,2.61,0,0,1,.65-1.6,2,2,0,0,1,1.61-.71h15.6a2.66,2.66,0,0,1,1.63.66,2,2,0,0,1,.84,1.65v23.27a1.69,1.69,0,0,0,1.68,1.69H184.3a1.69,1.69,0,0,0,1.68-1.69V494.79a2.27,2.27,0,0,1,.66-1.63,2.23,2.23,0,0,1,1.7-.68H203.7a3.2,3.2,0,0,1,1.83.52,1.88,1.88,0,0,1,.79,1.68v73.51a2.18,2.18,0,0,1-.68,1.74,2.71,2.71,0,0,1-1.79.57H188.34a2.5,2.5,0,0,1-1.7-.57,2.2,2.2,0,0,1-.66-1.74V540a1.68,1.68,0,0,0-1.68-1.68H161.55a1.68,1.68,0,0,0-1.68,1.68v28.16a2.12,2.12,0,0,1-.71,1.71,2.87,2.87,0,0,1-1.92.6H141.8c-1.48,0-2.23-.68-2.26-2Z"/><path class="cls-1" d="M215.5,494.89a2.52,2.52,0,0,1,.6-1.76,2.21,2.21,0,0,1,1.7-.65h52.13a2.3,2.3,0,0,1,1.79.68,2.58,2.58,0,0,1,.63,1.83v13a2.74,2.74,0,0,1-.63,1.71,2.19,2.19,0,0,1-1.84.81H237.51a1.68,1.68,0,0,0-1.68,1.68v9.67a1.68,1.68,0,0,0,1.68,1.68H262.1a2.81,2.81,0,0,1,1.66.47,1.81,1.81,0,0,1,.66,1.58v11.35a2.22,2.22,0,0,1-.58,1.42,2.11,2.11,0,0,1-1.68.68H237.51a1.68,1.68,0,0,0-1.68,1.68V550.8a1.68,1.68,0,0,0,1.68,1.68h33.63a2.11,2.11,0,0,1,2.37,2.41v13.2a1.33,1.33,0,0,1-.43.95c-.14,1-.85,1.46-2.15,1.46H217.8a2.42,2.42,0,0,1-1.67-.55,2.16,2.16,0,0,1-.63-1.71Z"/><path class="cls-1" d="M282.59,494.74a2.31,2.31,0,0,1,.63-1.63,2.23,2.23,0,0,1,1.73-.69h15.56a2.46,2.46,0,0,1,1.63.63,2.26,2.26,0,0,1,.78,1.69v55.48a1.69,1.69,0,0,0,1.69,1.68h27.21a2.31,2.31,0,0,1,1.63.63,2.23,2.23,0,0,1,.68,1.74v13.82a2.5,2.5,0,0,1-.6,1.62,2.18,2.18,0,0,1-1.71.79H286.58a4,4,0,0,1-4-4Z"/><path class="cls-1" d="M342.38,494.89a2.56,2.56,0,0,1,.58-1.76,2.2,2.2,0,0,1,1.73-.65h33.57a23,23,0,0,1,6.83,1,23.57,23.57,0,0,1,5.89,2.76,23.87,23.87,0,0,1,4.83,4.21,26.66,26.66,0,0,1,5.94,11.24A26.09,26.09,0,0,1,396,535.3a24.63,24.63,0,0,1-7.56,5.7,22.28,22.28,0,0,1-9.78,2.23H364.39a1.69,1.69,0,0,0-1.68,1.69v23.32c0,1.51-.8,2.26-2.42,2.26h-15.6A2.45,2.45,0,0,1,343,570a2.16,2.16,0,0,1-.63-1.71Zm39.56,23a9.42,9.42,0,0,0-.55-3.15,8.82,8.82,0,0,0-1.6-2.82,8.61,8.61,0,0,0-2.55-2,7.24,7.24,0,0,0-3.39-.79h-9.46a1.69,1.69,0,0,0-1.68,1.69V525a1.68,1.68,0,0,0,1.68,1.68h9.46a7.54,7.54,0,0,0,3.42-.76,7.92,7.92,0,0,0,2.54-2,8.66,8.66,0,0,0,1.58-2.78A9.79,9.79,0,0,0,381.94,517.91Z"/><path class="cls-1" d="M470.47,498.15a3.25,3.25,0,0,1,1.31,1.37,2.17,2.17,0,0,1-.15,2l-8.88,12.62a2.1,2.1,0,0,1-1.24,1,2.28,2.28,0,0,1-1.6-.45,20.08,20.08,0,0,0-12.24-4,19,19,0,0,0-14.19,6.09,20.67,20.67,0,0,0-4.1,6.62,22.94,22.94,0,0,0,0,16.16,20.55,20.55,0,0,0,4.1,6.57,19.13,19.13,0,0,0,14.19,6.07,20.42,20.42,0,0,0,12.34-4.1,2.49,2.49,0,0,1,1.58-.48,2.2,2.2,0,0,1,1.26.95l9,12.93a2.07,2.07,0,0,1,.15,1.94,3.3,3.3,0,0,1-1.31,1.31A41.65,41.65,0,0,1,460,569.85a40.14,40.14,0,0,1-32.29-3.66,40.6,40.6,0,0,1-14.39-14.37,39.39,39.39,0,0,1-4.05-9.56,40.95,40.95,0,0,1,0-21.38,40.49,40.49,0,0,1,10.33-17.79,39.48,39.48,0,0,1,8.11-6.28,41.34,41.34,0,0,1,9.59-4A39,39,0,0,1,448,491.32a39.57,39.57,0,0,1,11.91,1.76A40.58,40.58,0,0,1,470.47,498.15Z"/><path class="cls-1" d="M608.25,520.87a41.27,41.27,0,0,0-4-9.61,39.24,39.24,0,0,0-6.28-8.17,39.92,39.92,0,0,0-8.15-6.28,41.23,41.23,0,0,0-9.62-4.05,40.4,40.4,0,0,0-21.38,0,41.37,41.37,0,0,0-9.59,4.05,40,40,0,0,0-5.4,3.79,1.68,1.68,0,0,0-.24,2.38,42.34,42.34,0,0,1,4.63,6.52,45.28,45.28,0,0,1,4.39,10.42c0,.1.06.21.08.31a19.66,19.66,0,0,1,2.59-3.48,19.1,19.1,0,0,1,14.24-6.1,19.54,19.54,0,0,1,8,1.63,19.27,19.27,0,0,1,6.29,4.47,20.31,20.31,0,0,1,4.12,6.65,23.22,23.22,0,0,1,0,16.26,20,20,0,0,1-4.12,6.59,18.82,18.82,0,0,1-6.29,4.41,19.69,19.69,0,0,1-8,1.61,19.44,19.44,0,0,1-8-1.61,18.84,18.84,0,0,1-6.27-4.41,19.05,19.05,0,0,1-2.57-3.41l-.1.37a44.68,44.68,0,0,1-4.39,10.38,43.61,43.61,0,0,1-4.62,6.43,1.69,1.69,0,0,0,.24,2.39,41.36,41.36,0,0,0,5.39,3.78,40.25,40.25,0,0,0,40.59,0,41,41,0,0,0,8.15-6.28,39.29,39.29,0,0,0,6.28-8.09,40.37,40.37,0,0,0,4-9.56,40.44,40.44,0,0,0,0-21.39Z"/><path class="cls-1" d="M616.62,494.89a2.61,2.61,0,0,1,.58-1.76,2.22,2.22,0,0,1,1.74-.65h33.94a25.46,25.46,0,0,1,10.14,2,26.58,26.58,0,0,1,8.25,5.49,25.74,25.74,0,0,1,5.54,8.12,24.52,24.52,0,0,1,2,9.9,23.46,23.46,0,0,1-1,6.81,25.67,25.67,0,0,1-2.7,6A26.29,26.29,0,0,1,671,536a26.74,26.74,0,0,1-3.94,3.12,1.67,1.67,0,0,0-.55,2.18l12.77,24c.24.49.56,1.07.94,1.73a3.59,3.59,0,0,1,.58,1.74,1.56,1.56,0,0,1-.55,1.29,2.37,2.37,0,0,1-1.5.44h-18a2.6,2.6,0,0,1-1.6-.52,2.37,2.37,0,0,1-.92-1.42l-12.3-23.12a1.67,1.67,0,0,0-1.48-.89h-5.82a1.68,1.68,0,0,0-1.68,1.68v22c0,1.51-.81,2.26-2.42,2.26h-15.6a2.46,2.46,0,0,1-1.69-.55,2.16,2.16,0,0,1-.63-1.71Zm41.14,23.33a9.2,9.2,0,0,0-.57-3.15,10.45,10.45,0,0,0-1.63-2.89A9.62,9.62,0,0,0,653,510a8.59,8.59,0,0,0-3.25-1.15l-2.76-.19c-.86-.05-1.8-.08-2.81-.08h-5.57a1.69,1.69,0,0,0-1.68,1.69v15.92a1.68,1.68,0,0,0,1.68,1.68h8c.63,0,1.19,0,1.68-.05s1-.09,1.63-.16a8.34,8.34,0,0,0,3.31-1.08,8.52,8.52,0,0,0,2.46-2.15,9.42,9.42,0,0,0,1.53-2.89A10.53,10.53,0,0,0,657.76,518.22Z"/><path class="cls-1" d="M550.27,526.2a2.09,2.09,0,0,0,0-.25,37.56,37.56,0,0,0-1.07-5.08,41.68,41.68,0,0,0-4-9.61,39.28,39.28,0,0,0-5.18-7c-.36-.39-.73-.77-1.11-1.15a39.65,39.65,0,0,0-8.15-6.28,41.05,41.05,0,0,0-9.62-4.05,40.36,40.36,0,0,0-21.37,0,41.26,41.26,0,0,0-9.6,4.05,39.2,39.2,0,0,0-8.12,6.28,40.29,40.29,0,0,0-6.28,8.17,40.61,40.61,0,0,0-4.05,31,38.79,38.79,0,0,0,4.05,9.56,40.37,40.37,0,0,0,45.37,18.42,39.82,39.82,0,0,0,9.62-4,40.72,40.72,0,0,0,8.15-6.28c.38-.37.74-.75,1.11-1.13a39.57,39.57,0,0,0,5.18-7,40.76,40.76,0,0,0,4-9.56,36.63,36.63,0,0,0,1.09-5.24h0ZM529.66,537a19.43,19.43,0,0,1-.82,2.62,20.2,20.2,0,0,1-4.12,6.59,19,19,0,0,1-6.3,4.41,20.63,20.63,0,0,1-16,0,19,19,0,0,1-6.27-4.41,20.2,20.2,0,0,1-4.12-6.59,23.22,23.22,0,0,1,0-16.26,20.47,20.47,0,0,1,4.12-6.65,19.61,19.61,0,0,1,28.55,0,20.47,20.47,0,0,1,4.12,6.65,22,22,0,0,1,.83,2.65,22.8,22.8,0,0,1,.64,5.46A23.2,23.2,0,0,1,529.66,537Z"/><path class="cls-1" d="M381,727.9a79.84,79.84,0,0,1,27.2,4.75v-87.3h-52A7.15,7.15,0,0,0,349,652.5v36.57a123.81,123.81,0,0,0-17.78,7.14l-28.89-28.89a7.13,7.13,0,0,0-10.11,0L249.48,710a7.16,7.16,0,0,0,0,10.12l27.75,27.74a122.52,122.52,0,0,0-7.52,16.37h-34a7.16,7.16,0,0,0-7.16,7.15v60.41a7.16,7.16,0,0,0,7.16,7.15h30.12a123.29,123.29,0,0,0,8.36,22.86l-23.62,23.62a7.15,7.15,0,0,0,0,10.12l42.71,42.71a7.15,7.15,0,0,0,10.12,0l21.93-21.94A123.38,123.38,0,0,0,349,926.61v31.46a7.16,7.16,0,0,0,7.15,7.16h52V883A79.94,79.94,0,1,1,381,727.9Zm-84.9,36.36"/><path class="cls-3" d="M596.47,722.27A53.67,53.67,0,0,0,583,724a56.16,56.16,0,0,0-8.75,3.09,203.23,203.23,0,0,0-377.2,5.29,53.6,53.6,0,0,0-13.47-1.72c-39.21,0-51.15,40.15-51.15,93.32s11.94,99.23,51.15,99.23a54.93,54.93,0,0,0,26.21-6.77l27-17.25q-1.41-2.25-2.76-4.54A176.87,176.87,0,1,1,542,890L569.8,907.8a54.88,54.88,0,0,0,26.67,7c39.21,0,43.94-48.8,43.94-102S635.68,722.27,596.47,722.27Z"/><path class="cls-3" d="M541.1,987.44l.45,43.62c-1.3,12-11.26,6.92-11.26,6.92l-39-19.17-41.49-20.39A203.42,203.42,0,0,1,224,926.84l22.19-14.19A176.9,176.9,0,0,0,533.48,904l22.12,14.13a201.64,201.64,0,0,1-15,19.72Z"/><circle class="cls-1" cx="378.48" cy="804.98" r="19.01"/><circle class="cls-1" cx="434.86" cy="804.98" r="19.01"/><circle class="cls-1" cx="491.24" cy="804.98" r="19.01"/><path class="cls-1" d="M873,494.79a2.68,2.68,0,0,1,.66-1.6,2,2,0,0,1,1.6-.71h15.61a2.68,2.68,0,0,1,1.63.66,2,2,0,0,1,.84,1.65v23.27a1.69,1.69,0,0,0,1.68,1.69h22.75a1.69,1.69,0,0,0,1.68-1.69V494.79a2.27,2.27,0,0,1,.66-1.63,2.22,2.22,0,0,1,1.7-.68H937.2A3.23,3.23,0,0,1,939,493a1.88,1.88,0,0,1,.79,1.68v73.51a2.15,2.15,0,0,1-.69,1.74,2.66,2.66,0,0,1-1.78.57H921.85a2.48,2.48,0,0,1-1.7-.57,2.2,2.2,0,0,1-.66-1.74V540a1.68,1.68,0,0,0-1.68-1.68H895.06a1.68,1.68,0,0,0-1.68,1.68v28.16a2.12,2.12,0,0,1-.71,1.71,2.87,2.87,0,0,1-1.92.6H875.3c-1.47,0-2.22-.68-2.26-2Z"/><path class="cls-1" d="M949,494.89a2.52,2.52,0,0,1,.6-1.76,2.21,2.21,0,0,1,1.7-.65h52.13a2.3,2.3,0,0,1,1.79.68,2.58,2.58,0,0,1,.63,1.83v13a2.74,2.74,0,0,1-.63,1.71,2.2,2.2,0,0,1-1.84.81H971a1.68,1.68,0,0,0-1.68,1.68v9.67a1.68,1.68,0,0,0,1.68,1.68h24.59a2.81,2.81,0,0,1,1.66.47,1.83,1.83,0,0,1,.65,1.58v11.35a2.21,2.21,0,0,1-.57,1.42,2.11,2.11,0,0,1-1.69.68H971a1.68,1.68,0,0,0-1.68,1.68V550.8a1.68,1.68,0,0,0,1.68,1.68h33.63a2.1,2.1,0,0,1,2.36,2.41v13.2a1.32,1.32,0,0,1-.42.95c-.14,1-.86,1.46-2.15,1.46H951.31a2.4,2.4,0,0,1-1.67-.55,2.16,2.16,0,0,1-.63-1.71Z"/><path class="cls-1" d="M1016.1,494.74a2.31,2.31,0,0,1,.63-1.63,2.23,2.23,0,0,1,1.73-.69H1034a2.43,2.43,0,0,1,1.62.63,2.27,2.27,0,0,1,.79,1.69v55.48a1.69,1.69,0,0,0,1.69,1.68h27.21a2.33,2.33,0,0,1,1.63.63,2.27,2.27,0,0,1,.68,1.74v13.82a2.5,2.5,0,0,1-.6,1.62,2.18,2.18,0,0,1-1.71.79h-45.24a4,4,0,0,1-4-4Z"/><path class="cls-1" d="M1075.89,494.89a2.61,2.61,0,0,1,.57-1.76,2.23,2.23,0,0,1,1.74-.65h33.57a23,23,0,0,1,6.83,1,23.57,23.57,0,0,1,5.89,2.76,24.15,24.15,0,0,1,4.83,4.21,26.61,26.61,0,0,1,3.65,5.28,26.9,26.9,0,0,1,2.29,6,26.09,26.09,0,0,1-5.78,23.62,24.56,24.56,0,0,1-7.57,5.7,22.23,22.23,0,0,1-9.77,2.23H1097.9a1.69,1.69,0,0,0-1.68,1.69v23.32c0,1.51-.81,2.26-2.42,2.26h-15.6a2.45,2.45,0,0,1-1.68-.55,2.16,2.16,0,0,1-.63-1.71Zm39.56,23a9.42,9.42,0,0,0-.55-3.15,8.82,8.82,0,0,0-1.6-2.82,8.61,8.61,0,0,0-2.55-2,7.24,7.24,0,0,0-3.39-.79h-9.46a1.69,1.69,0,0,0-1.68,1.69V525a1.68,1.68,0,0,0,1.68,1.68h9.46a7.47,7.47,0,0,0,3.41-.76,7.85,7.85,0,0,0,2.55-2,8.66,8.66,0,0,0,1.58-2.78A9.79,9.79,0,0,0,1115.45,517.91Z"/><path class="cls-1" d="M1204,498.15a3.31,3.31,0,0,1,1.31,1.37,2.17,2.17,0,0,1-.15,2l-8.88,12.62a2.1,2.1,0,0,1-1.24,1,2.28,2.28,0,0,1-1.6-.45,20.13,20.13,0,0,0-12.24-4,19,19,0,0,0-14.19,6.09,20.67,20.67,0,0,0-4.1,6.62,22.94,22.94,0,0,0,0,16.16,20.55,20.55,0,0,0,4.1,6.57,19.13,19.13,0,0,0,14.19,6.07,20.42,20.42,0,0,0,12.34-4.1,2.48,2.48,0,0,1,1.58-.48,2.2,2.2,0,0,1,1.26.95l9,12.93a2.07,2.07,0,0,1,.15,1.94,3.36,3.36,0,0,1-1.31,1.31,41.65,41.65,0,0,1-10.64,5.13,40.14,40.14,0,0,1-32.29-3.66,40.57,40.57,0,0,1-8.12-6.27,41,41,0,0,1-6.27-8.1,39,39,0,0,1-4-9.56,40.95,40.95,0,0,1,0-21.38,40.1,40.1,0,0,1,4-9.62,40.88,40.88,0,0,1,6.27-8.17,39.54,39.54,0,0,1,8.12-6.28,41.34,41.34,0,0,1,9.59-4,39,39,0,0,1,10.69-1.45,39.51,39.51,0,0,1,11.9,1.76A40.48,40.48,0,0,1,1204,498.15Z"/><path class="cls-1" d="M1341.76,520.87a41.27,41.27,0,0,0-4-9.61,39.24,39.24,0,0,0-6.28-8.17,39.92,39.92,0,0,0-8.15-6.28,41.23,41.23,0,0,0-9.62-4.05,40.4,40.4,0,0,0-21.38,0,41.37,41.37,0,0,0-9.59,4.05,40,40,0,0,0-5.4,3.79,1.68,1.68,0,0,0-.24,2.38,43.75,43.75,0,0,1,4.63,6.52,45.28,45.28,0,0,1,4.39,10.42c0,.1.06.21.08.31a19.66,19.66,0,0,1,2.59-3.48,19.1,19.1,0,0,1,14.24-6.1,19.54,19.54,0,0,1,8,1.63,19.27,19.27,0,0,1,6.29,4.47,20.31,20.31,0,0,1,4.12,6.65,23.22,23.22,0,0,1,0,16.26,20,20,0,0,1-4.12,6.59,18.82,18.82,0,0,1-6.29,4.41,19.69,19.69,0,0,1-8,1.61,19.44,19.44,0,0,1-8-1.61,18.84,18.84,0,0,1-6.27-4.41,19.05,19.05,0,0,1-2.57-3.41l-.1.37a44.68,44.68,0,0,1-4.39,10.38,43.61,43.61,0,0,1-4.62,6.43,1.68,1.68,0,0,0,.24,2.39,40.7,40.7,0,0,0,5.39,3.78,40.25,40.25,0,0,0,40.59,0,41,41,0,0,0,8.15-6.28,39.29,39.29,0,0,0,6.28-8.09,40.37,40.37,0,0,0,4-9.56,40.44,40.44,0,0,0,0-21.39Z"/><path class="cls-1" d="M1350.13,494.89a2.56,2.56,0,0,1,.58-1.76,2.21,2.21,0,0,1,1.73-.65h34a25.53,25.53,0,0,1,10.14,2,26.58,26.58,0,0,1,8.25,5.49,25.74,25.74,0,0,1,5.54,8.12,24.52,24.52,0,0,1,2,9.9,23.46,23.46,0,0,1-1,6.81,25.3,25.3,0,0,1-2.71,6,25.88,25.88,0,0,1-4.12,5.1,27.27,27.27,0,0,1-3.94,3.12,1.67,1.67,0,0,0-.55,2.18l12.77,24c.24.49.56,1.07.94,1.73a3.59,3.59,0,0,1,.58,1.74,1.59,1.59,0,0,1-.55,1.29,2.37,2.37,0,0,1-1.5.44h-18a2.65,2.65,0,0,1-1.61-.52,2.4,2.4,0,0,1-.91-1.42l-12.3-23.12a1.67,1.67,0,0,0-1.48-.89h-5.82a1.68,1.68,0,0,0-1.68,1.68v22c0,1.51-.81,2.26-2.42,2.26h-15.61a2.45,2.45,0,0,1-1.68-.55,2.16,2.16,0,0,1-.63-1.71Zm41.14,23.33a9,9,0,0,0-.58-3.15,10.17,10.17,0,0,0-1.62-2.89,10,10,0,0,0-2.53-2.21,8.59,8.59,0,0,0-3.25-1.15l-2.76-.19c-.86-.05-1.8-.08-2.81-.08h-5.57a1.69,1.69,0,0,0-1.68,1.69v15.92a1.68,1.68,0,0,0,1.68,1.68h8c.63,0,1.19,0,1.69-.05s1-.09,1.62-.16a8.24,8.24,0,0,0,3.31-1.08,8.56,8.56,0,0,0,2.47-2.15,9.42,9.42,0,0,0,1.53-2.89A10.53,10.53,0,0,0,1391.27,518.22Z"/><path class="cls-1" d="M1283.78,526.2a1.06,1.06,0,0,0,0-.25,37.53,37.53,0,0,0-1.06-5.08,41.68,41.68,0,0,0-4-9.61,39.28,39.28,0,0,0-5.18-7c-.36-.39-.73-.77-1.11-1.15a39.65,39.65,0,0,0-8.15-6.28,41.05,41.05,0,0,0-9.62-4.05,40.36,40.36,0,0,0-21.37,0,41.26,41.26,0,0,0-9.6,4.05,39.2,39.2,0,0,0-8.12,6.28,40.29,40.29,0,0,0-6.28,8.17,40.61,40.61,0,0,0-4,31,38.79,38.79,0,0,0,4,9.56,40.37,40.37,0,0,0,45.37,18.42,39.82,39.82,0,0,0,9.62-4,40.72,40.72,0,0,0,8.15-6.28c.38-.37.74-.75,1.11-1.13a39.57,39.57,0,0,0,5.18-7,40.76,40.76,0,0,0,4-9.56,36.63,36.63,0,0,0,1.09-5.24h0ZM1263.17,537a19.43,19.43,0,0,1-.82,2.62,20.2,20.2,0,0,1-4.12,6.59,19,19,0,0,1-6.3,4.41,20.63,20.63,0,0,1-16,0,19,19,0,0,1-6.27-4.41,20.2,20.2,0,0,1-4.12-6.59,23.22,23.22,0,0,1,0-16.26,20.47,20.47,0,0,1,4.12-6.65,19.61,19.61,0,0,1,28.55,0,20.47,20.47,0,0,1,4.12,6.65,22,22,0,0,1,.83,2.65,22.8,22.8,0,0,1,.64,5.46A23.2,23.2,0,0,1,1263.17,537Z"/><path class="cls-1" d="M443.81,1055.66a3.06,3.06,0,0,1,1.25,1.3,2.06,2.06,0,0,1-.15,1.91l-8.49,12.06a2,2,0,0,1-1.18,1,2.22,2.22,0,0,1-1.53-.43,19.07,19.07,0,0,0-5.43-2.86,19.34,19.34,0,0,0-6.27-1,18.22,18.22,0,0,0-13.57,5.83,19.9,19.9,0,0,0-3.92,6.33,22,22,0,0,0,0,15.45,19.67,19.67,0,0,0,3.92,6.28,18.53,18.53,0,0,0,6,4.24,18.27,18.27,0,0,0,7.59,1.56,19.36,19.36,0,0,0,6.33-1,19.61,19.61,0,0,0,5.47-2.89,2.29,2.29,0,0,1,1.51-.45,2.07,2.07,0,0,1,1.2.9l8.59,12.36a2,2,0,0,1,.15,1.86,3.21,3.21,0,0,1-1.25,1.26,39.75,39.75,0,0,1-10.17,4.89,37.55,37.55,0,0,1-11.48,1.74,38.38,38.38,0,0,1-10.23-1.36,37.54,37.54,0,0,1-9.16-3.87,38.39,38.39,0,0,1-7.77-6,39.52,39.52,0,0,1-6-7.74,37.85,37.85,0,0,1-3.87-9.14,39.4,39.4,0,0,1,0-20.45,38.89,38.89,0,0,1,3.87-9.19,39.38,39.38,0,0,1,6-7.81,37,37,0,0,1,7.77-6,39.16,39.16,0,0,1,9.16-3.87,39,39,0,0,1,21.61.3A39.12,39.12,0,0,1,443.81,1055.66Z"/><path class="cls-1" d="M441.79,1087.61a38.38,38.38,0,0,1,1.35-10.23,38.63,38.63,0,0,1,9.88-17,37,37,0,0,1,7.77-6,39.23,39.23,0,0,1,9.17-3.87,38.53,38.53,0,0,1,20.44,0,39.28,39.28,0,0,1,9.2,3.87,38.17,38.17,0,0,1,13.8,13.81,40.63,40.63,0,0,1,3.87,9.19,38.57,38.57,0,0,1,0,20.45,39.5,39.5,0,0,1-3.87,9.14,38.1,38.1,0,0,1-6,7.74,39.37,39.37,0,0,1-7.79,6,37.65,37.65,0,0,1-9.2,3.87,39.08,39.08,0,0,1-20.44,0,37.61,37.61,0,0,1-9.17-3.87,38.39,38.39,0,0,1-7.77-6,39.19,39.19,0,0,1-6-7.74,37.85,37.85,0,0,1-3.87-9.14A38.3,38.3,0,0,1,441.79,1087.61Zm19.44,0a21.41,21.41,0,0,0,1.4,7.78,19.3,19.3,0,0,0,3.94,6.31,18.37,18.37,0,0,0,6,4.22,19.82,19.82,0,0,0,15.27,0,18.24,18.24,0,0,0,6-4.22,19.3,19.3,0,0,0,3.94-6.31,22.14,22.14,0,0,0,0-15.55,19.59,19.59,0,0,0-3.94-6.35,18.72,18.72,0,0,0-27.29,0,19.59,19.59,0,0,0-3.94,6.35A21.55,21.55,0,0,0,461.23,1087.56Z"/><path class="cls-1" d="M522.44,1087.61a38.2,38.2,0,0,1,5.23-19.42,38.64,38.64,0,0,1,6-7.81,37,37,0,0,1,7.77-6,39.41,39.41,0,0,1,9.17-3.87,38.53,38.53,0,0,1,20.44,0,39.28,39.28,0,0,1,9.2,3.87,38.17,38.17,0,0,1,13.8,13.81,39.74,39.74,0,0,1,3.87,9.19,38.57,38.57,0,0,1,0,20.45,38.66,38.66,0,0,1-3.87,9.14,37.74,37.74,0,0,1-6,7.74,39.08,39.08,0,0,1-7.79,6,37.65,37.65,0,0,1-9.2,3.87,39.08,39.08,0,0,1-20.44,0,37.77,37.77,0,0,1-9.17-3.87A38.74,38.74,0,0,1,527.67,1107a37.07,37.07,0,0,1-3.87-9.14A37.91,37.91,0,0,1,522.44,1087.61Zm19.44,0a21.41,21.41,0,0,0,1.4,7.78,19.3,19.3,0,0,0,3.94,6.31,18.37,18.37,0,0,0,6,4.22,18.66,18.66,0,0,0,7.62,1.53,18.88,18.88,0,0,0,7.66-1.53,18.34,18.34,0,0,0,6-4.22,19.28,19.28,0,0,0,3.93-6.31,22.14,22.14,0,0,0,0-15.55,19.57,19.57,0,0,0-3.93-6.35,18.73,18.73,0,0,0-27.3,0,19.59,19.59,0,0,0-3.94,6.35A21.55,21.55,0,0,0,541.88,1087.56Z"/><path class="cls-1" d="M605.66,1052.54a2.45,2.45,0,0,1,.55-1.68,2.09,2.09,0,0,1,1.66-.63h32.45a24.59,24.59,0,0,1,9.7,1.93,25.28,25.28,0,0,1,7.88,5.25,24.37,24.37,0,0,1,5.3,7.77,23.45,23.45,0,0,1,1.94,9.46,22.47,22.47,0,0,1-.93,6.51,24.09,24.09,0,0,1-2.59,5.78,24.59,24.59,0,0,1-3.94,4.87,25.33,25.33,0,0,1-3.65,2.91,1.75,1.75,0,0,0-.57,2.29l12.13,22.86c.23.47.54,1,.9,1.66a3.43,3.43,0,0,1,.56,1.65,1.48,1.48,0,0,1-.53,1.23,2.18,2.18,0,0,1-1.43.43H647.86a2.58,2.58,0,0,1-1.54-.5,2.28,2.28,0,0,1-.87-1.36l-11.71-22a1.79,1.79,0,0,0-1.57-.94h-5.3a1.78,1.78,0,0,0-1.77,1.78v20.88q0,2.16-2.31,2.16H607.87a2.32,2.32,0,0,1-1.61-.53,2,2,0,0,1-.6-1.63ZM645,1074.85a8.69,8.69,0,0,0-.55-3,9.92,9.92,0,0,0-1.56-2.76,9,9,0,0,0-2.41-2.11,8.33,8.33,0,0,0-3.11-1.11l-2.64-.17c-.82,0-1.72-.08-2.69-.08h-5.16a1.77,1.77,0,0,0-1.77,1.77v14.9a1.77,1.77,0,0,0,1.77,1.77h7.47c.61,0,1.14,0,1.61,0s1-.08,1.56-.15a7.86,7.86,0,0,0,3.16-1,8.11,8.11,0,0,0,2.36-2.06,8.91,8.91,0,0,0,1.46-2.76A10.16,10.16,0,0,0,645,1074.85Z"/><path class="cls-3" d="M131.1,1052.44a2.48,2.48,0,0,1,.63-1.53,1.9,1.9,0,0,1,1.53-.68h14.92a2.57,2.57,0,0,1,1.56.63,2,2,0,0,1,.8,1.58v22.09a1.77,1.77,0,0,0,1.77,1.77h21.43a1.77,1.77,0,0,0,1.77-1.77v-22.09a2.2,2.2,0,0,1,2.25-2.21h14.69a3.12,3.12,0,0,1,1.75.5,1.8,1.8,0,0,1,.75,1.61v70.28a2.07,2.07,0,0,1-.65,1.66,2.54,2.54,0,0,1-1.7.55H177.76a2.34,2.34,0,0,1-1.62-.55,2.09,2.09,0,0,1-.63-1.66v-26.76a1.77,1.77,0,0,0-1.77-1.77H152.31a1.77,1.77,0,0,0-1.77,1.77v26.76a2,2,0,0,1-.68,1.63,2.7,2.7,0,0,1-1.83.58H133.26c-1.41,0-2.13-.65-2.16-2Z"/><path class="cls-3" d="M203.38,1052.54a2.41,2.41,0,0,1,.57-1.68,2.11,2.11,0,0,1,1.63-.63h49.84a2.22,2.22,0,0,1,1.71.65,2.5,2.5,0,0,1,.6,1.76v12.42a2.58,2.58,0,0,1-.6,1.62,2.09,2.09,0,0,1-1.76.78H224.59a1.77,1.77,0,0,0-1.77,1.77v8.92a1.77,1.77,0,0,0,1.77,1.77h23.35a2.66,2.66,0,0,1,1.58.45,1.74,1.74,0,0,1,.63,1.51v10.85a2.1,2.1,0,0,1-.56,1.36,2,2,0,0,1-1.6.65h-23.4a1.77,1.77,0,0,0-1.77,1.77v9.32a1.77,1.77,0,0,0,1.77,1.77h32a2,2,0,0,1,2.26,2.3v12.63a1.28,1.28,0,0,1-.4.9c-.14.93-.82,1.4-2.06,1.4h-50.8a2.29,2.29,0,0,1-1.6-.53,2,2,0,0,1-.6-1.63Z"/><path class="cls-3" d="M266.44,1052.39a2.24,2.24,0,0,1,.6-1.56,2.15,2.15,0,0,1,1.66-.65h14.87a2.31,2.31,0,0,1,1.55.6,2.19,2.19,0,0,1,.76,1.61v52.89a1.77,1.77,0,0,0,1.77,1.77h25.86a2.24,2.24,0,0,1,1.56.6,2.15,2.15,0,0,1,.65,1.66v13.21a2.38,2.38,0,0,1-.58,1.56,2.11,2.11,0,0,1-1.63.75H270.42a4,4,0,0,1-4-4Z"/><path class="cls-3" d="M323.47,1052.54a2.45,2.45,0,0,1,.55-1.68,2.09,2.09,0,0,1,1.66-.63h32.1a22,22,0,0,1,6.53,1,22.3,22.3,0,0,1,10.25,6.66,25.8,25.8,0,0,1,5.68,10.75,24.75,24.75,0,0,1,.75,6.05,25,25,0,0,1-1.63,8.85,24.23,24.23,0,0,1-4.65,7.68,23.61,23.61,0,0,1-7.23,5.45,21.27,21.27,0,0,1-9.35,2.14H344.68a1.77,1.77,0,0,0-1.77,1.77v22.14q0,2.16-2.31,2.16H325.68a2.32,2.32,0,0,1-1.61-.53,2,2,0,0,1-.6-1.63Zm37.83,22a9.15,9.15,0,0,0-.53-3,8.43,8.43,0,0,0-1.53-2.69,8.15,8.15,0,0,0-2.44-1.93,6.85,6.85,0,0,0-3.24-.75h-8.88a1.77,1.77,0,0,0-1.77,1.77v13.23a1.77,1.77,0,0,0,1.77,1.77h8.88a7.3,7.3,0,0,0,3.27-.72,7.64,7.64,0,0,0,2.43-1.89,8.21,8.21,0,0,0,1.51-2.66A9.41,9.41,0,0,0,361.3,1074.55Z"/><path class="cls-2" d="M1078.11,727.9a79.85,79.85,0,0,1,27.21,4.75v-87.3h-52a7.15,7.15,0,0,0-7.15,7.15v36.57a123.34,123.34,0,0,0-17.78,7.14l-28.89-28.89a7.13,7.13,0,0,0-10.11,0L946.63,710a7.16,7.16,0,0,0,0,10.12l27.75,27.74a122.57,122.57,0,0,0-7.53,16.37h-34a7.15,7.15,0,0,0-7.15,7.15v60.41a7.15,7.15,0,0,0,7.15,7.15h30.13a122.58,122.58,0,0,0,8.36,22.86l-23.62,23.62a7.15,7.15,0,0,0,0,10.12l42.71,42.71a7.13,7.13,0,0,0,10.11,0l21.94-21.94a123.11,123.11,0,0,0,23.69,10.27v31.46a7.16,7.16,0,0,0,7.15,7.16h52V883a79.94,79.94,0,1,1-27.21-155.12Zm-84.89,36.36"/><path class="cls-1" d="M1293.62,722.27a53.61,53.61,0,0,0-13.47,1.73,56.64,56.64,0,0,0-8.76,3.09,203.22,203.22,0,0,0-377.19,5.29,53.66,53.66,0,0,0-13.47-1.72c-39.21,0-51.16,40.15-51.16,93.32s11.95,99.23,51.16,99.23a54.93,54.93,0,0,0,26.21-6.77l27-17.25c-.94-1.5-1.85-3-2.75-4.54a176.88,176.88,0,1,1,308-4.62L1267,907.8a54.88,54.88,0,0,0,26.67,7c39.21,0,43.94-48.8,43.94-102S1332.83,722.27,1293.62,722.27Z"/><path class="cls-1" d="M1238.25,987.44l.45,43.62c-1.31,12-11.26,6.92-11.26,6.92l-39-19.17L1147,998.42A203.43,203.43,0,0,1,921.1,926.84l22.19-14.19A176.91,176.91,0,0,0,1230.63,904l22.12,14.13a201.64,201.64,0,0,1-15,19.72Z"/><circle class="cls-2" cx="1075.62" cy="804.98" r="19.01"/><circle class="cls-2" cx="1132" cy="804.98" r="19.01"/><circle class="cls-2" cx="1188.38" cy="804.98" r="19.01"/><path class="cls-1" d="M1141,1055.66a3.15,3.15,0,0,1,1.26,1.3,2.06,2.06,0,0,1-.15,1.91l-8.49,12.06a2,2,0,0,1-1.18,1,2.22,2.22,0,0,1-1.53-.43,19.07,19.07,0,0,0-5.43-2.86,19.4,19.4,0,0,0-6.28-1,18.22,18.22,0,0,0-13.56,5.83,19.73,19.73,0,0,0-3.92,6.33,21.87,21.87,0,0,0,0,15.45,19.5,19.5,0,0,0,3.92,6.28,18.34,18.34,0,0,0,13.56,5.8,19.54,19.54,0,0,0,11.81-3.92,2.27,2.27,0,0,1,1.5-.45,2.06,2.06,0,0,1,1.21.9l8.59,12.36a2,2,0,0,1,.15,1.86,3.35,3.35,0,0,1-1.25,1.26,39.66,39.66,0,0,1-10.18,4.89,37.5,37.5,0,0,1-11.48,1.74,38.31,38.31,0,0,1-10.22-1.36,37.77,37.77,0,0,1-9.17-3.87,38.82,38.82,0,0,1-13.76-13.74,37.07,37.07,0,0,1-3.87-9.14,38.62,38.62,0,0,1,9.87-37.45,37.21,37.21,0,0,1,7.76-6,39.41,39.41,0,0,1,9.17-3.87,39,39,0,0,1,21.6.3A38.81,38.81,0,0,1,1141,1055.66Z"/><path class="cls-1" d="M1138.93,1087.61a38.2,38.2,0,0,1,5.23-19.42,39.05,39.05,0,0,1,6-7.81,37.21,37.21,0,0,1,7.76-6,39.31,39.31,0,0,1,9.18-3.87,38.5,38.5,0,0,1,20.43,0,39.1,39.1,0,0,1,9.2,3.87,38.17,38.17,0,0,1,13.8,13.81,39.74,39.74,0,0,1,3.87,9.19,38.57,38.57,0,0,1,0,20.45,38.66,38.66,0,0,1-3.87,9.14,37.74,37.74,0,0,1-6,7.74,38.8,38.8,0,0,1-7.79,6,37.49,37.49,0,0,1-9.2,3.87,39,39,0,0,1-20.43,0,37.68,37.68,0,0,1-9.18-3.87,38.61,38.61,0,0,1-7.76-6,39.19,39.19,0,0,1-6-7.74,37.45,37.45,0,0,1-3.87-9.14A38.31,38.31,0,0,1,1138.93,1087.61Zm19.44,0a21.21,21.21,0,0,0,1.41,7.78,19.3,19.3,0,0,0,3.94,6.31,18.43,18.43,0,0,0,6,4.22,19.84,19.84,0,0,0,15.28,0,18.34,18.34,0,0,0,6-4.22,19.3,19.3,0,0,0,3.94-6.31,22.29,22.29,0,0,0,0-15.55,19.59,19.59,0,0,0-3.94-6.35,18.71,18.71,0,0,0-27.29,0,19.59,19.59,0,0,0-3.94,6.35A21.35,21.35,0,0,0,1158.37,1087.56Z"/><path class="cls-1" d="M1219.59,1087.61a38.38,38.38,0,0,1,1.35-10.23,38.63,38.63,0,0,1,9.88-17,37,37,0,0,1,7.77-6,39.23,39.23,0,0,1,9.17-3.87,38.53,38.53,0,0,1,20.44,0,39.28,39.28,0,0,1,9.2,3.87,38,38,0,0,1,13.79,13.81,40.21,40.21,0,0,1,3.88,9.19,38.57,38.57,0,0,1,0,20.45,39.1,39.1,0,0,1-3.88,9.14,37.7,37.7,0,0,1-6,7.74,39.37,39.37,0,0,1-7.79,6,37.65,37.65,0,0,1-9.2,3.87,39.08,39.08,0,0,1-20.44,0,37.61,37.61,0,0,1-9.17-3.87,38.39,38.39,0,0,1-7.77-6,39.19,39.19,0,0,1-6-7.74,37.85,37.85,0,0,1-3.87-9.14A38.3,38.3,0,0,1,1219.59,1087.61Zm19.44,0a21.41,21.41,0,0,0,1.4,7.78,19.3,19.3,0,0,0,3.94,6.31,18.37,18.37,0,0,0,6,4.22,18.59,18.59,0,0,0,7.62,1.53,18.8,18.8,0,0,0,7.65-1.53,18.24,18.24,0,0,0,6-4.22,19.3,19.3,0,0,0,3.94-6.31,22.14,22.14,0,0,0,0-15.55,19.59,19.59,0,0,0-3.94-6.35,18.72,18.72,0,0,0-27.29,0,19.59,19.59,0,0,0-3.94,6.35A21.55,21.55,0,0,0,1239,1087.56Z"/><path class="cls-1" d="M1302.8,1052.54a2.45,2.45,0,0,1,.56-1.68,2.09,2.09,0,0,1,1.66-.63h32.45a24.51,24.51,0,0,1,9.69,1.93,25.21,25.21,0,0,1,7.89,5.25,24.53,24.53,0,0,1,5.3,7.77,23.44,23.44,0,0,1,1.93,9.46,22.81,22.81,0,0,1-.92,6.51,24.29,24.29,0,0,1-6.54,10.65,25.24,25.24,0,0,1-3.64,2.91,1.76,1.76,0,0,0-.58,2.29l12.14,22.86c.23.47.53,1,.9,1.66a3.4,3.4,0,0,1,.55,1.65,1.48,1.48,0,0,1-.52,1.23,2.21,2.21,0,0,1-1.44.43H1345a2.53,2.53,0,0,1-1.53-.5,2.34,2.34,0,0,1-.88-1.36l-11.71-22a1.77,1.77,0,0,0-1.56-.94H1324a1.78,1.78,0,0,0-1.77,1.78v20.88q0,2.16-2.31,2.16H1305a2.3,2.3,0,0,1-1.61-.53,2.05,2.05,0,0,1-.61-1.63Zm39.34,22.31a8.69,8.69,0,0,0-.55-3,9.92,9.92,0,0,0-1.56-2.76,9,9,0,0,0-2.41-2.11,8.32,8.32,0,0,0-3.12-1.11l-2.63-.17c-.82,0-1.72-.08-2.69-.08H1324a1.77,1.77,0,0,0-1.77,1.77v14.9A1.77,1.77,0,0,0,1324,1084h7.47c.6,0,1.14,0,1.61,0s1-.08,1.55-.15a7.9,7.9,0,0,0,3.17-1,8.24,8.24,0,0,0,2.36-2.06,9.13,9.13,0,0,0,1.46-2.76A10.16,10.16,0,0,0,1342.14,1074.85Z"/><path class="cls-2" d="M828.25,1052.44a2.53,2.53,0,0,1,.62-1.53,1.94,1.94,0,0,1,1.54-.68h14.92a2.52,2.52,0,0,1,1.55.63,1.93,1.93,0,0,1,.81,1.58v22.09a1.77,1.77,0,0,0,1.77,1.77h21.42a1.78,1.78,0,0,0,1.78-1.77v-22.09a2.19,2.19,0,0,1,2.25-2.21h14.68a3.16,3.16,0,0,1,1.76.5,1.8,1.8,0,0,1,.75,1.61v70.28a2.07,2.07,0,0,1-.65,1.66,2.56,2.56,0,0,1-1.71.55H874.91a2.37,2.37,0,0,1-1.63-.55,2.09,2.09,0,0,1-.62-1.66v-26.76a1.78,1.78,0,0,0-1.78-1.77H849.46a1.77,1.77,0,0,0-1.77,1.77v26.76a2,2,0,0,1-.68,1.63,2.7,2.7,0,0,1-1.83.58H830.41c-1.41,0-2.13-.65-2.16-2Z"/><path class="cls-2" d="M900.52,1052.54a2.41,2.41,0,0,1,.58-1.68,2.1,2.1,0,0,1,1.63-.63h49.84a2.24,2.24,0,0,1,1.71.65,2.5,2.5,0,0,1,.6,1.76v12.42a2.58,2.58,0,0,1-.6,1.62,2.1,2.1,0,0,1-1.76.78H921.74a1.77,1.77,0,0,0-1.77,1.77v8.92a1.77,1.77,0,0,0,1.77,1.77h23.34a2.67,2.67,0,0,1,1.59.45,1.76,1.76,0,0,1,.62,1.51v10.85a2.09,2.09,0,0,1-.55,1.36,2,2,0,0,1-1.61.65H921.74a1.77,1.77,0,0,0-1.77,1.77v9.32a1.77,1.77,0,0,0,1.77,1.77h32a2,2,0,0,1,2.26,2.3v12.63a1.24,1.24,0,0,1-.4.9c-.13.93-.82,1.4-2.06,1.4H902.73a2.29,2.29,0,0,1-1.6-.53,2,2,0,0,1-.61-1.63Z"/><path class="cls-2" d="M963.58,1052.39a2.21,2.21,0,0,1,.61-1.56,2.15,2.15,0,0,1,1.65-.65h14.87a2.35,2.35,0,0,1,1.56.6,2.19,2.19,0,0,1,.76,1.61v52.89a1.77,1.77,0,0,0,1.77,1.77h25.86a2.2,2.2,0,0,1,1.55.6,2.13,2.13,0,0,1,.66,1.66v13.21a2.43,2.43,0,0,1-.58,1.56,2.12,2.12,0,0,1-1.63.75H967.57a4,4,0,0,1-4-4Z"/><path class="cls-2" d="M1020.62,1052.54a2.45,2.45,0,0,1,.55-1.68,2.09,2.09,0,0,1,1.66-.63h32.1a21.81,21.81,0,0,1,12.15,3.59,23,23,0,0,1,4.63,4,26.29,26.29,0,0,1,3.49,5.05,25.71,25.71,0,0,1,2.18,5.7,24.6,24.6,0,0,1-.88,14.9,24.21,24.21,0,0,1-4.64,7.68,23.53,23.53,0,0,1-7.24,5.45,21.23,21.23,0,0,1-9.34,2.14h-13.45a1.77,1.77,0,0,0-1.77,1.77v22.14q0,2.16-2.31,2.16h-14.92a2.32,2.32,0,0,1-1.61-.53,2,2,0,0,1-.6-1.63Zm37.82,22a9.14,9.14,0,0,0-.52-3,8.65,8.65,0,0,0-1.54-2.69,8.23,8.23,0,0,0-2.43-1.93,6.91,6.91,0,0,0-3.24-.75h-8.88a1.77,1.77,0,0,0-1.77,1.77v13.23a1.77,1.77,0,0,0,1.77,1.77h8.88a7.26,7.26,0,0,0,3.26-.72,7.68,7.68,0,0,0,2.44-1.89,8.59,8.59,0,0,0,1.51-2.66A9.4,9.4,0,0,0,1058.44,1074.55Z"/></svg>