<svg id="Capa_1" data-name="Capa 1" xmlns="http://www.w3.org/2000/svg" viewBox="0 0 512 512"><defs><style>.cls-1{fill:#252525;}.cls-2{fill:#5398c6;}</style></defs><path class="cls-1" d="M295.82,227.63a2.72,2.72,0,0,1,1.12,1.16,1.87,1.87,0,0,1-.13,1.7l-7.56,10.73a1.74,1.74,0,0,1-1.05.87,1.94,1.94,0,0,1-1.37-.38,17.19,17.19,0,0,0-4.83-2.55,17.46,17.46,0,0,0-5.59-.89,16.12,16.12,0,0,0-12.07,5.19,17.63,17.63,0,0,0-3.49,5.63A18.94,18.94,0,0,0,259.6,256a18.74,18.74,0,0,0,1.25,6.86,17.44,17.44,0,0,0,3.49,5.59,16.3,16.3,0,0,0,12.07,5.17,17.4,17.4,0,0,0,10.51-3.49,2.05,2.05,0,0,1,1.34-.4,1.82,1.82,0,0,1,1.08.8l7.64,11a1.76,1.76,0,0,1,.14,1.66,2.85,2.85,0,0,1-1.12,1.11,35.07,35.07,0,0,1-9.06,4.36,34.21,34.21,0,0,1-27.48-3.1,34.94,34.94,0,0,1-12.25-12.23,33.37,33.37,0,0,1-3.44-8.14,34.36,34.36,0,0,1,3.44-26.39,34.42,34.42,0,0,1,5.35-6.95,33,33,0,0,1,6.9-5.34,35,35,0,0,1,8.17-3.45,34.63,34.63,0,0,1,19.23.27A34.77,34.77,0,0,1,295.82,227.63Z"/><path class="cls-1" d="M294,256.07a33.71,33.71,0,0,1,1.21-9.1,34.09,34.09,0,0,1,3.45-8.19,34.73,34.73,0,0,1,5.34-6.95,33.14,33.14,0,0,1,6.92-5.34A34.75,34.75,0,0,1,319.1,223a34.24,34.24,0,0,1,18.19,0,34.62,34.62,0,0,1,8.19,3.45,33.94,33.94,0,0,1,12.29,12.29,35.74,35.74,0,0,1,3.44,8.19,34.28,34.28,0,0,1,0,18.2,35,35,0,0,1-3.44,8.14,33.55,33.55,0,0,1-5.35,6.88,34.63,34.63,0,0,1-6.94,5.35,33.4,33.4,0,0,1-8.19,3.44,34.2,34.2,0,0,1-26.35-3.44,34.23,34.23,0,0,1-6.92-5.35,34.58,34.58,0,0,1-5.34-6.88,33.4,33.4,0,0,1-3.45-8.14A33.76,33.76,0,0,1,294,256.07Zm17.31-.05a19,19,0,0,0,1.25,6.93,17.16,17.16,0,0,0,3.5,5.62,16.4,16.4,0,0,0,12.13,5.12,16.74,16.74,0,0,0,6.81-1.37,16.3,16.3,0,0,0,5.36-3.75,17.35,17.35,0,0,0,3.51-5.62,19.78,19.78,0,0,0,0-13.84,17.49,17.49,0,0,0-3.51-5.65,17,17,0,0,0-19-3.81,16.7,16.7,0,0,0-5.34,3.81,17.3,17.3,0,0,0-3.5,5.65A19.13,19.13,0,0,0,311.33,256Z"/><path class="cls-1" d="M365.82,256.07A34.1,34.1,0,0,1,367,247a34.4,34.4,0,0,1,8.8-15.14,33.08,33.08,0,0,1,6.91-5.34A35,35,0,0,1,390.9,223a34.24,34.24,0,0,1,18.19,0,35,35,0,0,1,8.19,3.45,34,34,0,0,1,12.28,12.29A35.33,35.33,0,0,1,433,247a34.28,34.28,0,0,1,0,18.2,34.6,34.6,0,0,1-3.45,8.14,33.55,33.55,0,0,1-5.35,6.88,34.57,34.57,0,0,1-6.93,5.35,34.28,34.28,0,0,1-34.55,0,34.86,34.86,0,0,1-12.26-12.23,33.79,33.79,0,0,1-3.45-8.14A34.16,34.16,0,0,1,365.82,256.07Zm17.3-.05a19,19,0,0,0,1.25,6.93,17.35,17.35,0,0,0,3.51,5.62,16.32,16.32,0,0,0,5.34,3.75,16.53,16.53,0,0,0,6.78,1.37,16.75,16.75,0,0,0,6.82-1.37,16.51,16.51,0,0,0,5.36-3.75,17.16,17.16,0,0,0,3.5-5.62,19.78,19.78,0,0,0,0-13.84,17.3,17.3,0,0,0-3.5-5.65A16.3,16.3,0,0,0,400,238.27a16.21,16.21,0,0,0-12.12,5.19,17.49,17.49,0,0,0-3.51,5.65A19.13,19.13,0,0,0,383.12,256Z"/><path class="cls-1" d="M439.9,224.85a2.16,2.16,0,0,1,.49-1.49,1.85,1.85,0,0,1,1.48-.56h28.88a21.66,21.66,0,0,1,8.63,1.72,22.49,22.49,0,0,1,7,4.67,22,22,0,0,1,4.71,6.91,20.87,20.87,0,0,1,1.72,8.43,20,20,0,0,1-.82,5.79,21.28,21.28,0,0,1-2.31,5.14,21.54,21.54,0,0,1-3.51,4.34,22.86,22.86,0,0,1-3.24,2.59,1.57,1.57,0,0,0-.51,2l10.8,20.35c.21.41.47.91.8,1.47a3.05,3.05,0,0,1,.49,1.48,1.29,1.29,0,0,1-.47,1.09,1.91,1.91,0,0,1-1.27.38H477.46a2.19,2.19,0,0,1-1.36-.44,2,2,0,0,1-.79-1.21L464.89,268a1.57,1.57,0,0,0-1.39-.84h-4.72a1.58,1.58,0,0,0-1.58,1.58v18.59c0,1.28-.68,1.92-2.05,1.92H441.87a2.08,2.08,0,0,1-1.44-.47,1.84,1.84,0,0,1-.53-1.45Zm35,19.86a7.64,7.64,0,0,0-.49-2.68,8.54,8.54,0,0,0-1.39-2.46,7.88,7.88,0,0,0-2.14-1.88,7.34,7.34,0,0,0-2.78-1l-2.34-.15c-.73-.05-1.53-.07-2.4-.07h-4.59a1.58,1.58,0,0,0-1.58,1.58v13.25a1.58,1.58,0,0,0,1.58,1.58h6.65c.54,0,1,0,1.43,0s.88-.08,1.39-.14a7.15,7.15,0,0,0,2.82-.91,7.61,7.61,0,0,0,2.1-1.84,8.28,8.28,0,0,0,1.3-2.46A9.14,9.14,0,0,0,474.91,244.71Z"/><path class="cls-2" d="M17.46,224.76A2.22,2.22,0,0,1,18,223.4a1.69,1.69,0,0,1,1.36-.6H32.66a2.24,2.24,0,0,1,1.39.56,1.72,1.72,0,0,1,.71,1.41v19.66A1.58,1.58,0,0,0,36.34,246H55.41A1.58,1.58,0,0,0,57,244.43V224.77a1.95,1.95,0,0,1,2-2H72.06a2.77,2.77,0,0,1,1.56.44,1.59,1.59,0,0,1,.67,1.43v62.57a1.82,1.82,0,0,1-.58,1.47,2.23,2.23,0,0,1-1.51.49H59a2.09,2.09,0,0,1-1.45-.49,1.84,1.84,0,0,1-.56-1.47V263.41a1.57,1.57,0,0,0-1.58-1.57H36.34a1.57,1.57,0,0,0-1.58,1.57v23.83a1.81,1.81,0,0,1-.6,1.45,2.45,2.45,0,0,1-1.63.51H19.38q-1.87,0-1.92-1.74Z"/><path class="cls-2" d="M81.8,224.85a2.12,2.12,0,0,1,.51-1.49,1.83,1.83,0,0,1,1.45-.56h44.36a2,2,0,0,1,1.53.58,2.22,2.22,0,0,1,.53,1.56V236a2.36,2.36,0,0,1-.53,1.45,1.87,1.87,0,0,1-1.57.69h-27.4a1.58,1.58,0,0,0-1.58,1.58v7.94a1.57,1.57,0,0,0,1.58,1.57h20.78a2.33,2.33,0,0,1,1.41.41,1.54,1.54,0,0,1,.56,1.34v9.66a1.85,1.85,0,0,1-.49,1.21,1.8,1.8,0,0,1-1.43.58H100.68A1.57,1.57,0,0,0,99.1,264v8.3a1.57,1.57,0,0,0,1.58,1.57h28.47a1.81,1.81,0,0,1,2,2.06v11.23a1.12,1.12,0,0,1-.36.81c-.12.83-.73,1.24-1.84,1.24H83.76a2.06,2.06,0,0,1-1.43-.47,1.8,1.8,0,0,1-.53-1.45Z"/><path class="cls-2" d="M137.93,224.72a2,2,0,0,1,.54-1.39,1.92,1.92,0,0,1,1.47-.58h13.24a2.08,2.08,0,0,1,1.39.54,2,2,0,0,1,.67,1.43V271.8a1.57,1.57,0,0,0,1.57,1.57h23a2,2,0,0,1,1.39.54,1.91,1.91,0,0,1,.58,1.48v11.76a2.13,2.13,0,0,1-.51,1.38,1.91,1.91,0,0,1-1.46.67H141.47a3.54,3.54,0,0,1-3.54-3.54Z"/><path class="cls-2" d="M188.7,224.85a2.16,2.16,0,0,1,.49-1.49,1.85,1.85,0,0,1,1.48-.56h28.57a19.37,19.37,0,0,1,5.82.85,19.58,19.58,0,0,1,5,2.34,20.58,20.58,0,0,1,4.12,3.58,23.3,23.3,0,0,1,3.11,4.5,22.7,22.7,0,0,1,1.94,5.07,21.81,21.81,0,0,1,.67,5.39,22.06,22.06,0,0,1-1.45,7.87,21.57,21.57,0,0,1-4.14,6.84,20.86,20.86,0,0,1-6.44,4.85,18.74,18.74,0,0,1-8.32,1.9h-12a1.58,1.58,0,0,0-1.58,1.58v19.71c0,1.28-.68,1.92-2.05,1.92H190.67a2.08,2.08,0,0,1-1.44-.47,1.84,1.84,0,0,1-.53-1.45Zm33.67,19.59a7.89,7.89,0,0,0-.47-2.68,7.58,7.58,0,0,0-1.36-2.4,7.34,7.34,0,0,0-2.17-1.72,6.18,6.18,0,0,0-2.88-.67h-7.91a1.58,1.58,0,0,0-1.58,1.58v11.78a1.58,1.58,0,0,0,1.58,1.58h7.91a6.41,6.41,0,0,0,2.9-.65,6.62,6.62,0,0,0,2.17-1.68,7.26,7.26,0,0,0,1.34-2.37A8.14,8.14,0,0,0,222.37,244.44Z"/></svg>